<svg xmlns="http://www.w3.org/2000/svg" width="43" height="44" viewBox="0 0 43 44">
  <path fill="#FFF" fill-rule="evenodd" d="M27.206,14.652 L25.198,14.653375 C23.6233333,14.653375 23.318,15.42475 23.318,16.556375 L23.318,19.053375 L27.074,19.053375 L26.5846667,22.96525 L23.318,22.96525 L23.318,33 L19.402,33 L19.402,22.96525 L16.1273333,22.96525 L16.1273333,19.053375 L19.402,19.053375 L19.402,16.17 C19.402,12.821875 21.3846667,11 24.2793333,11 C25.666,11 26.858,11.105875 27.206,11.154 L27.206,14.652 Z M21.666,0 C9.88466667,0 0.332666667,9.849125 0.332666667,22 C0.332666667,34.1495 9.88466667,44 21.666,44 C33.4486667,44 42.9993333,34.1495 42.9993333,22 C42.9993333,9.849125 33.4486667,0 21.666,0 L21.666,0 Z"/>
</svg>
