<svg xmlns="http://www.w3.org/2000/svg" width="44" height="44" viewBox="0 0 44 44">
  <g fill="#FFF" fill-rule="evenodd">
    <path d="M22.0257125 26.246275C24.3618375 26.246275 26.2565875 24.357025 26.2565875 22.025025 26.2565875 19.6944 24.3618375 17.80515 22.0257125 17.80515 19.6895875 17.80515 17.7948375 19.6944 17.7948375 22.025025 17.7948375 24.357025 19.6895875 26.246275 22.0257125 26.246275M26.897475 17.7023L29.8716 17.7023C30.211225 17.7023 30.4876 17.4273 30.4876 17.08905L30.4876 14.120425C30.4876 13.782175 30.211225 13.507175 29.8716 13.507175L26.897475 13.507175C26.55785 13.507175 26.281475 13.782175 26.281475 14.120425L26.281475 17.08905C26.281475 17.4273 26.55785 17.7023 26.897475 17.7023"/>
    <path d="M33,30.3908 C33,31.8318 31.829875,33.00055 30.38475,33.00055 L13.61525,33.00055 C12.1715,33.00055 11,31.8318 11,30.3908 L11,13.608925 C11,12.167925 12.1715,11.00055 13.61525,11.00055 L30.38475,11.00055 C31.829875,11.00055 33,12.167925 33,13.608925 L33,30.3908 Z M22,0.00055 C9.849125,0.00055 0,9.849675 0,22.00055 C0,34.15005 9.849125,44.00055 22,44.00055 C34.150875,44.00055 44,34.15005 44,22.00055 C44,9.849675 34.150875,0.00055 22,0.00055 L22,0.00055 Z"/>
    <path d="M28.717975,22.025575 C28.717975,25.70645 25.71635,28.702575 22.02585,28.702575 C18.33535,28.702575 15.333725,25.70645 15.333725,22.025575 C15.333725,21.415075 15.416225,20.82245 15.5716,20.260075 L13.513225,20.260075 L13.513225,29.827325 C13.513225,30.16695 13.788225,30.44195 14.12785,30.44195 L29.922475,30.44195 C30.263475,30.44195 30.538475,30.16695 30.538475,29.827325 L30.538475,20.260075 L28.4801,20.260075 C28.635475,20.82245 28.717975,21.415075 28.717975,22.025575"/>
  </g>
</svg>
