<svg xmlns="http://www.w3.org/2000/svg" width="38" height="40" viewBox="0 0 38 40">
  <path fill="#FFF" d="M28.4035967,24.7404992 C29.9165458,23.2428341 31,22.0339549 31,19.4221191 C31,16.7172882 28.3958231,14.0097424 25.386444,14.0097424 C23.1641482,14.0097424 8.16972496,14 8.16972496,14 C8.16972496,14 7.9753834,14.8466989 8.16972496,15.5782609 C8.26689575,15.9617552 8.32811334,21.7611111 8.32811334,25.1833333 C8.32811334,28.6055556 8.37961385,34.0143317 8.16972496,34.4208535 C7.78784379,35.1630435 8.16972496,36 8.16972496,36 L25.386444,36 C29.4851075,36 31,32.3483897 31,29.9039452 C31,27.4595008 29.5764481,25.8404992 28.4035967,24.7404992 Z M10,16.0012573 C10,16.0012573 25.0705423,15.9783565 26.017638,16.1280295 C27.7116217,16.396296 29.0601697,18.0549678 28.997929,19.8543159 C28.9356883,21.653664 28.3246923,23.4472869 26.017638,23.7858915 C23.7105836,24.1244961 10,23.9601012 10,23.9601012 L10,16.0012573 Z M25.5745165,33.8567988 C23.2837338,34.0260524 10.1079767,33.963911 10.1079767,33.963911 L10.1530512,26 L25.4362883,26 C27.090019,26 29.1424081,27.6353 29.0783023,30.006485 C29.0141964,32.37767 27.8652993,33.6875453 25.5745165,33.8567988 Z M30.7657269,37.3465861 C30.3693661,37.8967073 29.7427436,38.2239565 29.0743857,38.229877 L8.75633626,38.2451371 C8.21099725,38.2451371 7.49178203,38.2837362 6.84808881,37.6724343 C6.20439558,37.0611324 6.06388955,36.6194869 5.99978368,36.1859203 C5.99978368,36.1859203 6.04720446,29.5109701 6.03403202,24.9984667 C6.04720446,20.4850657 5.99978368,13.8110131 5.99978368,13.8110131 C6.06388955,13.3774465 6.21142088,12.9277222 6.84808881,12.3244991 C7.48475673,11.7212761 8.21099725,11.7508986 8.75633626,11.7508986 L29.4159909,11.7670564 C30.0845372,11.7723432 30.7115717,12.0993049 31.1082104,12.6494496 C31.4164455,13.0982763 31.3769281,14.55427 31.3769281,14.55427 L34,14.5470888 C34,14.5470888 33.7848501,13.4052737 33.6548821,12.982479 C33.3132768,11.8720818 32.4509211,11.1431873 31.5420227,10.6485803 C30.6331244,10.1539733 29.4151128,10.1674381 29.4151128,10.1674381 L17.5291812,10.1674381 C12.863503,10.1674381 8.66588551,9.90981161 7.57520749,10.0336878 C6.48452947,10.1575639 5.50010913,10.3119603 4.87836997,11.1485732 C4.31898035,11.9008067 3.99054752,12.511211 4.00020731,13.8119107 C4.00020731,14.4654023 4.02303954,20.0012305 4.04850626,24.9993644 C4.02303954,29.9966005 4.00459812,35.5324287 4.00020731,36.186818 C3.99054752,37.4875177 4.31898035,38.0970243 4.87836997,38.8501555 C5.50010913,39.6858707 6.48452947,39.8375742 7.57520749,39.9650409 C8.66588551,40.0925077 12.863503,39.8303929 17.5291812,39.8303929 L29.0743857,39.8303929 C29.0743857,39.8303929 30.2932754,39.845653 31.2021738,39.3501484 C32.1110721,38.8546437 32.9725497,38.1257492 33.3150331,37.0162497 C33.444123,36.5970456 33.6566384,35.4507423 33.6566384,35.4507423 L31.0335665,35.4444587 C31.0335665,35.4444587 31.073962,36.9004524 30.7657269,37.3465861 Z M33.8681651,7.2174326 C35.4495359,7.35569035 36.319472,9.29402756 36.319472,9.29402756 C36.319472,9.29402756 37.7295884,9.44320039 37.9782717,9.09482725 C38.2132911,8.76646511 36.470686,5.16903495 36.1782782,5.05169778 C35.6809116,4.85340707 33.6759593,5.2872817 32.6256595,5.31820778 L5.37160842,5.31820778 C4.32404137,5.2872817 2.31908912,4.85340707 1.81898971,5.05169778 C1.52931465,5.17085413 -0.213290374,8.76646511 0.0217290176,9.09482725 C0.270412327,9.44320039 1.68052868,9.29402756 1.68052868,9.29402756 C1.68052868,9.29402756 2.5504648,7.35387117 4.13183558,7.2174326 C5.8808171,7.06462141 10.1029678,7.2174326 12.3028586,7.2174326 C14.5027494,7.2174326 17.4878601,7.18559694 17.7684259,7.46847956 C17.7939318,7.49394809 17.8139722,7.64221133 17.8312799,7.89052952 L17.8312799,21.4843585 C17.7993974,25.0153886 17.7684259,28.6182763 17.7684259,31.5062259 C17.7684259,40.167346 17.9569879,42.9288626 16.8884695,43.55648 C16.4220745,43.8293571 15.7570971,43.6192417 15.379973,43.9330504 C15.0028488,44.2468591 15.1285569,45 15.1285569,45 L22.5981654,45 C22.5981654,45 22.7238735,44.2468591 22.3467493,43.9330504 C21.9696252,43.6192417 21.2591015,43.8948476 20.8382528,43.55648 C19.9036408,42.8033391 19.9582965,40.167346 19.9582965,31.5062259 C19.9582965,28.6173667 19.9273249,25.0135694 19.8954424,21.4825394 L19.8954424,7.89052952 C19.9127501,7.64221133 19.9327905,7.49394809 19.9582965,7.46847956 C20.241595,7.18559694 23.3606121,7.2174326 25.5605029,7.2174326 L33.8681651,7.2174326 Z" transform="translate(0 -5)"/>
</svg>
