<svg xmlns="http://www.w3.org/2000/svg" width="902" height="117" viewBox="0 0 902 117">
  <path fill="#FFF" d="M715.642827,684.351117 C714.729543,682.27186 714.388553,679.96191 714.683212,677.67147 C714.713578,675.852327 715.868338,674.24876 717.568265,673.665119 C718.160739,673.436264 718.709134,673.104068 719.188636,672.683563 C720.670869,671.499881 722.401675,670.677434 724.247358,670.279752 C725.788687,669.91918 727.231213,669.11791 728.772543,668.617116 C729.351249,668.356328 729.97698,668.219915 730.610282,668.216481 C731.671197,668.373174 732.747986,668.067537 733.574376,667.375147 C733.898784,667.08539 734.331838,666.953692 734.760014,667.014575 C737.388178,667.75575 740.174427,666.633972 742.861873,667.895973 C744.125524,668.46416 745.452638,668.874484 746.814,669.11791 C748.255439,669.497117 749.602003,670.179637 750.766126,671.121086 C755.054183,674.105817 756.793119,678.632995 758.670379,683.14014 C758.892471,683.982339 758.992323,684.852849 758.966788,685.724237 C759.044864,686.895771 758.985163,688.072561 758.788943,689.229794 C758.413491,690.852367 757.583544,693.236146 757.583544,693.236146 C756.812879,696.080655 754.540407,698.043767 752.860753,700.407515 C751.863153,701.952704 750.505899,703.22539 748.908627,704.11339 C748.024294,704.698726 747.242835,705.42997 746.596633,706.27682 C744.583439,708.407394 742.206885,710.151491 739.581608,711.424981 C738.37621,712.025934 737.526503,713.167744 736.281583,713.728634 C732.869233,715.189654 729.28118,716.186539 725.610842,716.693334 C720.650923,717.354382 714.60417,717.013842 712.035288,715.010666 C709.770829,713.479663 708.494817,710.831393 708.695741,708.079678 C708.755023,706.9579 707.668188,705.755994 708.102922,704.554089 C708.932868,702.210373 708.35981,699.3258 710.652043,697.522942 C710.818046,697.386961 710.930266,697.194991 710.968213,696.982084 C711.021209,694.76155 712.558642,693.309428 713.47704,691.595326 C712.60367,691.878813 711.704612,692.083336 710.790515,692.205292 C710.034765,692.205292 709.577337,692.98406 708.921028,693.183744 C707.230534,693.682954 705.878139,694.980901 703.889323,694.761248 C703.606875,694.758016 703.340243,694.89187 703.173349,695.12068 C702.377823,696.558405 700.88621,696.518468 699.613368,696.678216 C698.47367,696.72949 697.382854,697.157748 696.510815,697.896289 C695.399761,698.651166 694.159009,699.1928 692.851393,699.493762 C689.742599,701.011229 686.524977,702.292791 683.225523,703.327696 C681.872372,703.909164 680.590966,704.646265 679.406996,705.524222 C677.139745,706.662421 675.011712,708.06021 672.824014,709.31822 C672.451846,709.520677 672.115795,709.783855 671.829606,710.096988 C671.534198,710.506344 671.154311,710.846897 670.715869,711.095408 C666.260921,713.032344 663.01915,716.626658 659.180735,719.402267 C657.768676,720.440625 657.032814,722.177876 655.362208,722.916708 C655.058353,723.1176 654.8667,723.450646 654.845116,723.815286 C654.765563,726.111653 652.796635,726.610864 651.324911,727.449537 C649.943783,728.088942 648.371591,728.174655 646.929627,727.689158 C645.557344,727.349695 644.901035,725.991843 644.324278,724.753801 C644.039878,723.871968 643.694304,723.01122 643.290094,722.177876 C642.856086,721.564154 642.914377,720.728064 643.429311,720.181035 C644.239568,719.150368 644.53291,717.802913 644.224837,716.526816 C643.86685,711.654524 644.543048,706.8022 644.383943,701.949876 C645.49768,700.092814 644.881147,697.956194 645.776114,695.959353 C646.093612,695.160508 646.236058,694.302385 646.193765,693.443333 C646.173877,690.647756 647.605825,688.07183 647.367167,685.256285 C647.287614,684.417611 648.083141,683.818559 648.083141,683.059759 C648.420746,680.268064 648.932211,677.500347 649.614529,674.772869 C650.350391,671.917386 649.912852,668.822282 651.424352,666.106578 C651.842003,665.367747 651.484016,664.489137 651.66301,663.370906 C651.842003,662.252675 652.557977,661.374065 651.66301,660.255834 C651.404464,659.93634 651.603345,659.277382 652.001109,658.878014 C652.65342,658.103878 652.94315,657.085729 652.796635,656.082436 C652.796635,652.707775 652.95574,649.353082 652.796635,645.97842 C652.604727,644.278063 652.77419,642.556174 653.293839,640.926412 C653.531669,640.569999 653.531669,640.104689 653.293839,639.748276 C653.248913,639.688316 653.215218,639.620654 653.194398,639.548592 C652.78049,638.677253 652.737381,637.674357 653.074983,636.770454 C653.412584,635.866551 654.101852,635.139404 654.984333,634.756173 C655.282655,633.877563 654.68601,633.318448 654.725787,632.240154 C654.765563,631.161859 654.487129,629.823976 655.66053,629.364702 C656.851096,628.815495 658.234674,628.890181 659.359729,629.564386 C661.741271,630.697126 663.409573,632.940475 663.814677,635.55491 C663.874341,636.313709 664.590315,636.753014 664.809085,637.43194 C665.72394,640.307392 667.613316,642.823411 668.050855,645.878578 C668.191208,646.497263 668.411864,647.094766 668.707165,647.655767 C669.980007,651.110302 671.332402,654.504932 672.386475,658.059309 C672.96488,660.6188 673.995467,663.053496 675.429363,665.247937 C675.761516,665.621509 676.006157,666.065003 676.145337,666.545884 C676.582877,669.141777 678.213706,671.198523 679.088785,673.574764 C679.307421,674.347089 679.742299,675.040155 680.341739,675.571605 C680.825519,675.903741 681.160938,676.412482 681.276483,676.989362 C681.36068,678.116169 681.760575,679.196089 682.429996,680.104435 C683.205635,681.16276 682.410108,682.760233 681.037825,683.439159 C680.341739,683.798591 679.585989,684.038211 678.730798,684.377674 C677.477296,684.008889 676.340029,683.321024 675.429363,682.380833 C674.715149,681.523131 674.162519,680.541976 673.798534,679.485414 C672.784147,677.698575 672.071777,675.755269 671.690389,673.734511 C671.610836,672.676186 670.497099,671.697734 669.920342,670.679345 C668.743439,668.048055 667.76614,665.331282 666.996783,662.552201 C665.863157,659.876434 664.809085,657.200667 663.874341,654.464995 C663.554497,653.222517 663.354692,651.951974 663.277696,650.670997 C663.218032,650.171787 663.416914,649.592703 662.541834,649.532797 C661.666755,649.472892 661.666755,650.171787 661.666755,650.710934 C661.527538,652.208564 661.308768,653.706195 661.308768,655.203826 C661.483013,657.707506 660.959643,660.210459 659.797268,662.432391 C659.542803,663.029889 659.453486,663.685218 659.538722,664.32939 C659.72442,666.690752 659.556826,669.066723 659.041518,671.378239 C658.679572,673.524382 658.208267,675.650481 657.629458,677.748162 C657.366001,678.928402 657.226025,680.13304 657.211807,681.342476 C656.627525,684.120504 656.182794,686.926283 655.8793,689.749177 C655.686537,691.651127 655.286377,693.526078 654.68601,695.340332 C654.202472,697.047932 653.968006,698.816887 653.989925,700.592024 C653.970037,703.187918 652.717082,705.564158 653.015405,708.18002 C653.241081,709.562224 653.138873,710.978384 652.717082,712.313481 C654.865004,713.192091 655.919077,710.136925 657.907893,711.19525 C658.266757,709.543427 659.390143,708.16321 660.930893,707.481126 C662.581434,706.509437 664.157023,705.414757 665.644388,704.206307 L665.823381,704.066528 C668.965711,702.828486 671.332402,700.172688 674.49462,699.034488 C677.239186,698.036068 680.023529,696.418626 682.449884,695.320364 C684.87624,694.222101 687.382149,693.303554 689.848281,692.34507 C691.433595,691.778935 692.981376,691.11197 694.482222,690.348229 C694.802435,690.189318 695.161627,690.126899 695.516407,690.168514 C697.079916,690.523625 698.702938,689.901712 699.633256,688.591009 C700.229901,687.672462 700.88621,688.71082 701.482855,688.71082 C702.357934,687.57262 702.894915,686.114926 704.883731,687.093378 C705.460488,687.392905 706.335567,686.913663 706.773106,686.414452 C707.561815,685.615326 708.435495,684.905526 709.378456,684.297801 C711.511753,684.447584 713.591587,684.440074 715.642827,684.351117 Z M446.525792,712.73529 C446.478238,712.732385 446.430391,712.735786 446.383523,712.745493 C444.489004,713.660581 442.267192,713.608978 440.417614,712.606931 C439.16559,712.196219 437.824481,712.134607 436.539773,712.428781 C435.458479,712.587232 434.359703,712.587232 433.278409,712.428781 C432.520819,712.32406 431.756235,712.277735 430.991477,712.29022 L430.355114,712.29022 C428.666271,712.554234 426.93691,712.269652 425.423295,711.478646 C425.098665,711.384071 424.753607,711.384071 424.428977,711.478646 L423.852273,711.478646 C422.945712,711.597468 422.025706,711.401734 421.247159,710.9244 C420.999541,710.764254 420.706626,710.687892 420.411932,710.706661 C418.150044,710.796479 415.884661,710.736965 413.630682,710.528511 L411.860795,710.409744 C411.005682,710.409744 410.130682,710.409744 409.275568,710.409744 C407.057369,710.519247 404.836907,710.244646 402.713068,709.59817 C401.758967,709.318399 400.758377,709.230915 399.769886,709.340842 C399.213068,709.340842 398.65625,709.340842 398.119318,709.340842 C397.715507,709.311293 397.310061,709.311293 396.90625,709.340842 C395.818583,709.553385 394.690551,709.333085 393.764205,708.727213 C393.213593,708.89651 392.624475,708.89651 392.073864,708.727213 C391.704024,708.617756 391.310181,708.617756 390.940341,708.727213 C390.076015,708.973092 389.15978,708.973092 388.295455,708.727213 C387.921791,708.651864 387.542809,708.605538 387.161932,708.588652 L383.880682,708.588652 C381.732955,708.549063 379.525568,708.509474 377.338068,708.370912 C375.825674,708.321452 374.311665,708.36111 372.803977,708.489679 C371.869318,708.628241 370.855114,708.628241 369.880682,708.628241 L366.022727,708.628241 C365.669363,709.367362 365.402462,710.14444 365.227273,710.944195 C365.069855,711.751476 364.795194,712.531644 364.411932,713.260149 C363.673723,714.766409 363.273377,716.414428 363.238636,718.090002 L363.238636,718.466098 C363.226557,719.517085 362.54873,720.445783 361.548295,720.782052 C361.157764,720.916939 360.748494,720.990401 360.335227,720.999791 C359.641102,721.009021 358.978493,720.711862 358.525568,720.188217 C358.199556,719.814195 357.84735,719.463616 357.471591,719.13911 C356.918543,718.657645 356.424588,718.112819 356,717.515963 L356,717.41699 C356.298295,715.774048 356.696023,714.19049 357.113636,712.686109 C357.352273,711.775563 357.590909,710.845222 357.809659,709.914882 C357.998177,708.343187 357.757742,706.749968 357.113636,705.302768 C356.461278,703.891217 356.512825,702.256645 357.252841,700.888599 C358.154103,699.75681 359.541393,699.117786 360.991477,699.166479 L361.25,699.166479 L361.409091,699.166479 C361.995676,698.246386 362.444515,697.246166 362.741477,696.197307 C363.019886,695.088816 363.4375,694.000119 363.815341,692.951012 C364.034091,692.376972 364.232955,691.802932 364.431818,691.209097 C364.681591,690.568855 364.868079,689.905905 364.988636,689.229649 C365.231408,687.703775 365.624399,686.205375 366.161932,684.756097 L366.579545,683.509044 C366.997159,682.143225 367.235795,681.153501 366.301136,680.163777 C366.197249,680.036194 366.122594,679.887574 366.082386,679.728298 C366.093512,679.662781 366.093512,679.59587 366.082386,679.530354 C365.289112,678.477866 364.985212,677.138242 365.247159,675.84858 C365.644886,674.740089 366.917614,674.166049 368.329545,673.631598 C371.128,672.713085 374.002954,672.044037 376.920455,671.632356 C377.696023,671.474 378.471591,671.355233 379.247159,671.236466 C380.692986,671.067407 382.122793,670.782767 383.522727,670.385303 C385.0721,670.021069 386.671272,669.914058 388.255682,670.068592 L389.965909,670.068592 L398.059659,670.068592 L402.534091,670.068592 C403.291191,669.985102 404.05326,670.174739 404.681818,670.603043 C405.045843,670.857278 405.499264,670.950409 405.934659,670.860371 C408.009916,670.754228 410.088133,671.001926 412.079545,671.592767 C413.313209,671.921402 414.569416,672.159574 415.838068,672.305368 C417.572668,672.560256 419.26493,673.046281 420.869318,673.750365 C421.426136,673.94831 421.963068,674.166049 422.519886,674.3442 C423.848178,674.886319 424.896781,675.944376 425.423295,677.273783 C425.980162,678.435828 426.030529,679.775118 425.5625,680.975351 C424.70346,682.842816 423.148989,684.304933 421.227273,685.053014 L421.107955,685.053014 C420.498479,685.25387 419.927122,685.554955 419.417614,685.943765 C418.267251,686.803324 416.965511,687.441117 415.579545,687.824241 L414.1875,688.319103 L413.173295,688.754582 C412.023004,689.34641 410.765355,689.703117 409.474432,689.803689 L409.275568,689.803689 C408.628626,690.862604 407.45737,691.490948 406.213068,691.446631 C405.825027,691.490012 405.43989,691.556108 405.059659,691.644576 L404.463068,691.783137 C404.057861,691.818432 403.668072,691.954568 403.329545,692.179027 C402.063258,693.322988 400.347063,693.839102 398.65625,693.584435 C397.860795,694.831487 397.522727,695.425322 396.806818,695.563883 C396.090909,695.702445 395.494318,695.266966 394.102273,694.336625 C393.605114,696.177512 392.113636,696.711963 390.681818,697.246414 C390.1465,697.426473 389.627576,697.651626 389.130682,697.919426 C388.786046,698.089196 388.381568,698.089196 388.036932,697.919426 C387.301136,697.305797 386.644886,697.543331 385.869318,697.820454 L385.213068,698.038193 L384.556818,700.017641 L384.318182,700.017641 C383.399097,699.828491 382.442144,700.006202 381.653409,700.512503 C380.761812,701.057589 379.704088,701.268156 378.670455,701.106338 C378.657977,701.279442 378.715219,701.450373 378.829545,701.581405 C379.068182,701.878323 379.565341,701.878323 380.022727,701.878323 C382.607955,702.056473 385.352273,702.056473 387.977273,702.056473 L391.676136,702.056473 L392.09375,702.056473 C393.075155,701.980516 394.057301,702.193938 394.917614,702.670102 C395.185718,702.790542 395.479045,702.844863 395.772727,702.828458 L396.051136,702.828458 C396.812926,702.868149 397.576279,702.868149 398.338068,702.828458 C400.301594,702.682028 402.27399,702.951895 404.125,703.620237 C404.495891,703.722254 404.887632,703.722254 405.258523,703.620237 L405.934659,703.620237 C408.360795,703.620237 410.607955,703.758798 413.153409,703.917154 C415.698864,704.07551 418.303977,704.233866 420.909091,704.233866 C422.158417,704.318858 423.383244,704.620301 424.528409,705.124617 L425.204545,705.362151 L425.423295,705.362151 C425.840063,705.539621 426.283648,705.64666 426.735795,705.678863 L427.451705,705.678863 C432.582386,705.678863 437.553977,705.936191 441.53125,706.173725 C442.505682,706.213314 442.784091,705.876808 442.923295,705.579891 L442.923295,705.441329 L443.202888,705.441329 C443.220339,705.361544 443.233779,705.280733 443.243112,705.199223 C441.752347,705.199223 441.261964,704.155967 440.830427,703.153622 C440.689226,702.831678 440.532092,702.517596 440.359659,702.212645 C440.190662,701.947118 440.147313,701.6156 440.241967,701.31258 C440.742159,699.998727 440.742159,698.53523 440.241967,697.221377 C440.163506,696.894081 440.045814,696.566784 440.045814,696.239488 C439.799228,694.890846 440.569933,693.566006 441.830809,693.171086 C443.41965,692.639229 443.753111,691.3505 444.086572,689.979947 C444.141419,689.812274 444.187259,689.641542 444.223879,689.468547 C444.309971,689.139205 444.375493,688.804387 444.420032,688.466202 C444.454394,687.747457 444.649178,687.047002 444.988877,686.4206 C445.257151,685.822016 445.197264,685.11941 444.831954,684.579559 L444.831954,684.436367 C444.652155,684.159578 444.513294,683.856163 444.420032,683.536302 C444.076475,682.727181 444.097273,681.800348 444.476747,681.008873 C444.856221,680.217397 445.554736,679.643946 446.381565,679.445099 L446.970025,679.07689 L447.166178,678.851874 L447.28387,678.851874 L447.401562,678.851874 C449.442948,679.744699 451.720369,679.860554 453.83539,679.17917 L454.12962,679.056434 C454.345389,678.933698 454.561157,678.810962 454.776926,678.933698 C455.871244,679.49682 457.154521,679.49682 458.248839,678.933698 C459.214729,678.508867 460.280356,678.394887 461.308831,678.606402 C463.191613,677.896825 465.197119,677.610992 467.193429,677.767705 L469.154962,677.767705 C469.892003,677.77512 470.621701,677.614548 471.293033,677.297217 C472.402286,676.729995 473.628297,676.456018 474.863023,676.499432 L475.274945,676.499432 L476.059558,676.499432 C477.439573,676.55656 478.815832,676.312708 480.100316,675.783472 C481.14114,675.387732 482.253926,675.240925 483.35646,675.353895 L484.141074,675.353895 C485.597064,675.28437 487.036488,675.00205 488.417215,674.515199 L489.770673,674.14699 C492.274753,673.553071 494.819347,673.16323 497.381421,672.980998 L497.656035,672.980998 C498.871841,672.848776 500.054708,672.488409 501.147564,671.917285 C502.124263,671.492319 503.169064,671.263299 504.227171,671.242236 C504.799985,671.216845 505.370304,671.148482 505.933704,671.037676 C506.967649,670.857953 508.005935,671.33117 508.581774,672.244581 C508.97212,672.874148 509.263485,673.564722 509.444848,674.290183 C509.582156,674.699303 509.719463,675.128879 509.896001,675.538 C510.209846,676.192592 509.739078,676.826729 509.464464,677.419953 C508.557502,678.591258 507.234107,679.329287 505.796397,679.465555 L505.443321,679.465555 C503.999899,679.527055 502.566659,679.746455 501.167179,680.120147 C499.812358,680.483815 498.42564,680.703137 497.028345,680.77474 L496.7145,680.77474 C496.526964,680.81615 496.333191,680.81615 496.145655,680.77474 C494.103107,680.601011 492.050563,680.944896 490.16298,681.777085 L489.90798,681.777085 C488.267009,682.268539 486.573414,682.54343 484.866841,682.595325 C484.062612,682.656693 483.023,682.718061 482.414925,682.840797 C481.806849,682.963534 481.198774,682.963534 480.610314,682.963534 C479.415327,682.89444 478.22102,683.111352 477.118786,683.59767 C476.548116,683.81445 475.938839,683.898238 475.333791,683.843142 L474.274563,683.843142 C473.487057,683.757597 472.694427,683.944481 472.0188,684.374999 C471.555258,684.670509 471.001878,684.772779 470.469189,684.661383 C467.830759,684.796746 465.206978,685.152456 462.623058,685.725096 L461.799214,685.9092 C460.680817,686.29791 459.485773,686.382403 458.327301,686.154672 C457.939065,686.037322 457.52763,686.238721 457.366149,686.62516 C456.683322,687.839087 455.505451,688.660502 454.168851,688.854866 C453.060328,689.107433 452.194505,690.010363 451.952319,691.166396 C454.455381,691.22522 456.949693,690.837805 459.327682,690.020859 C462.222861,689.041238 465.248133,688.544181 468.291888,688.548026 L469.468807,688.548026 C470.168714,688.624296 470.870179,688.419468 471.43034,687.975258 C471.644183,687.821482 471.896426,687.736167 472.156108,687.729785 C473.509565,687.586593 474.882638,687.361577 476.196865,687.116105 C478.095024,686.743033 480.015142,686.503838 481.944157,686.400144 L482.336463,686.400144 C483.28624,686.486607 484.238451,686.265141 485.062994,685.766008 C485.28779,685.607971 485.558012,685.535714 485.827992,685.561448 C487.331424,685.595577 488.829754,685.367418 490.261056,684.886399 C491.286584,684.567425 492.33665,684.341566 493.399509,684.211351 C495.969117,683.965878 496.498731,684.354543 498.283726,686.62516 C498.401418,686.788809 498.538725,686.932001 498.656417,687.075193 C499.297954,687.525577 499.509627,688.408558 499.1468,689.120794 L498.911417,689.591283 C498.380002,691.304912 497.153592,692.688595 495.557195,693.375646 C495.423677,693.456036 495.259176,693.456036 495.125658,693.375646 C494.000568,692.617472 492.573988,692.539581 491.37913,693.171086 C490.841441,693.349046 490.290231,693.479067 489.731442,693.55975 C487.730679,693.784766 485.749531,693.948414 484.23915,693.948414 L483.65069,693.948414 C483.083209,693.908857 482.517085,694.044006 482.022618,694.337079 C482.022618,694.357535 481.394928,694.828023 481.002621,694.603007 C479.670307,693.980979 478.133719,694.056924 476.863787,694.807567 C476.143327,695.134254 475.384965,695.361197 474.608024,695.482616 L472.646491,695.707632 C470.684958,695.932648 468.586118,696.17812 466.624585,696.17812 C464.735947,696.296667 462.873261,696.696192 461.093062,697.364569 L460.249603,697.630497 C459.680378,697.791065 459.093515,697.873584 458.503838,697.875969 L457.69961,697.875969 C456.895714,698.010226 456.107028,698.229556 455.34577,698.530562 C454.280728,698.948878 453.165018,699.2105 452.03078,699.307891 C454.070774,701.680789 452.893854,703.82867 451.834627,705.771992 C452.950851,706.263001 454.209931,706.263001 455.326155,705.771992 C457.596861,704.782339 460.009979,704.194685 462.466135,704.03323 L463.937285,703.82867 C464.721898,703.72639 465.545742,703.542286 466.330355,703.358182 C467.888331,702.91479 469.503254,702.72843 471.116495,702.805869 C472.452186,701.989455 473.982628,701.585126 475.529944,701.639876 C476.101156,701.616722 476.670795,701.562097 477.236478,701.476228 C478.09234,701.316794 478.932666,701.07717 479.74724,700.760268 L480.571084,700.453428 C481.724943,700.093331 482.917898,699.88713 484.121458,699.839747 C485.180004,699.73195 486.229171,699.540477 487.259911,699.266979 C487.907217,699.10333 488.574138,698.837402 489.221444,698.837402 C490.333042,698.6344 491.433147,698.368074 492.516819,698.039618 C493.715597,697.683406 494.933983,697.403326 496.16527,697.200921 C496.484987,697.170427 496.806705,697.170427 497.126422,697.200921 C499.030378,696.930546 500.814319,698.230155 501.226025,700.187499 C501.680214,702.118329 500.937481,704.140351 499.362569,705.260591 C499.116573,705.477378 498.817866,705.618973 498.499495,705.669712 C497.088868,705.79897 495.691219,706.05216 494.321429,706.426584 C492.237721,707.077314 490.052623,707.29963 487.887602,707.081177 C487.383898,706.981716 486.862873,707.091856 486.436067,707.388017 L486.29876,707.490297 C486.103756,707.676556 485.855853,707.791458 485.592608,707.817593 C484.454846,707.812322 483.323229,707.991755 482.238387,708.34945 C481.194916,708.687139 480.113271,708.879725 479.021473,708.922218 C476.082964,708.929741 473.175435,709.548688 470.469189,710.742804 C469.556231,711.146075 468.577102,711.361408 467.585736,711.37694 L467.311121,711.37694 C464.994583,711.489258 462.710083,711.986457 460.543833,712.849773 L459.249221,713.258894 C458.889545,713.360537 458.572265,713.583521 458.346916,713.89303 C457.451777,715.181382 455.921606,715.811703 454.42385,715.509056 C453.594881,715.455642 452.762831,715.524508 451.952319,715.713616 L451.128475,715.877264 C450.674248,715.952882 450.215343,715.993903 449.755402,716 C448.382329,716 447.735023,715.427232 446.871948,713.831662 L446.734641,713.831662 L446.636564,713.668014 C446.591304,713.358106 446.554373,713.047076 446.525792,712.73529 Z M935.740633,711.292172 C936.039084,705.715546 937.730307,700.337376 937.730307,694.820287 C936.496709,694.105843 935.621253,694.721058 934.78559,695.197354 C932.836372,696.58243 930.133254,696.149273 928.717085,694.224917 C928.037691,693.40653 927.499747,692.480959 927.125346,691.486218 C926.150406,689.045204 928.358943,687.140022 930.249134,686.524807 C932.53139,685.787764 934.875334,685.256418 937.252785,684.937155 C938.56597,684.738699 939.063389,684.103638 939.083285,682.734289 C939.083285,680.888644 939.083285,679.023153 939.083285,677.177508 C939.083285,676.16538 939.083285,675.07387 940.27709,674.696803 C941.401928,674.184383 942.715903,674.31317 943.719225,675.034179 C944.904122,675.868817 945.637953,677.200958 945.708899,678.646086 C945.708899,679.492834 945.748693,680.346196 945.82828,681.206174 C945.94766,682.257993 946.584356,682.575524 947.618986,682.555678 C948.653616,682.535832 949.190828,681.920617 949.966801,681.603087 C951.941772,680.836065 954.00854,680.329039 956.114893,680.094818 C956.545988,680.091564 956.969651,679.982512 957.348491,679.777288 C958.729109,678.62382 960.506953,678.054092 962.302779,678.189636 C962.442056,678.189636 962.621126,678.189636 962.72061,678.189636 C964.230122,677.338501 965.881657,676.766991 967.595311,676.502756 C968.370867,676.175503 969.168743,675.903595 969.98292,675.689085 C970.96943,675.512093 971.902014,675.1115 972.708773,674.518192 C973.554836,673.86293 974.53179,673.396008 975.573903,673.148842 C975.946168,673.087887 976.207225,672.749384 976.170805,672.374862 C976.177786,672.156882 976.089815,671.946562 975.929587,671.798161 C975.76936,671.649761 975.552568,671.577814 975.335142,671.600882 L971.07724,671.461963 L970.878273,671.461963 C969.266637,671.719956 967.655001,670.628445 966.32192,670.92613 C964.873391,671.469715 963.298796,671.586817 961.785463,671.263506 C959.79579,670.350606 957.806116,671.422271 955.816442,670.906284 C951.220296,672.414553 946.405285,671.977949 941.689758,672.513782 C941.268226,672.552981 940.857156,672.667247 940.476057,672.851158 C938.606252,673.828366 936.590714,674.498487 934.507036,674.835722 C933.355635,675.161117 932.118552,674.952384 931.13852,674.267354 C930.158487,673.582323 929.539579,672.49374 929.453264,671.303197 C929.404121,670.735345 929.404121,670.164325 929.453264,669.596472 C929.509042,667.908203 930.828895,666.5319 932.517362,666.401323 C934.580322,666.287514 936.633875,666.042251 938.665454,665.667034 C945.669106,663.940463 952.831931,664.714443 959.895273,664.198456 C962.103811,664.019846 964.332246,664.079383 966.540784,664 C969.869538,664.025071 973.192957,664.270373 976.489153,664.734289 C978.744779,664.899177 980.970725,665.34589 983.114767,666.063947 C983.850946,666.32194 984.626919,666.063947 985.482479,666.381477 C986.836436,667.015368 987.876652,668.167401 988.367506,669.576626 C988.497579,669.974962 988.678109,670.355102 988.904718,670.707828 C989.429237,671.333988 989.429237,672.244843 988.904718,672.871003 C988.245942,674.035561 987.292296,675.007288 986.139071,675.689085 C985.104441,676.224917 984.447848,677.53473 983.194354,677.951488 C981.940859,678.368247 980.468501,679.737596 978.817071,679.936053 C978.399226,680.047134 978.029038,680.29097 977.762544,680.63065 C977.097534,681.278003 976.237647,681.68941 975.315245,681.801544 C973.739347,682.2011 972.22621,682.815485 970.818583,683.627343 C972.389801,684.291702 974.042346,684.745485 975.733077,684.976847 L979.513457,684.976847 C980.150153,684.976847 980.786848,684.837927 981.343957,685.314223 C981.608248,685.566739 981.988389,685.657739 982.338794,685.55237 C985.124337,684.401323 987.830294,685.889746 990.615837,685.730981 C993.582562,685.711812 996.53048,686.20187 999.330608,687.179713 C1000.63034,687.504247 1001.97395,687.618161 1003.30996,687.517089 C1005.22041,687.530747 1007.10602,687.9502 1008.84125,688.747519 C1009.08426,688.898137 1009.35474,688.999308 1009.63712,689.045204 C1013.01956,689.164278 1015.8449,690.910695 1018.80951,692.180816 C1020.85852,693.203704 1022.44363,694.961991 1023.24649,697.102536 C1023.56484,697.836825 1023.7638,698.392503 1024.75864,698.412348 C1025.55451,697.340684 1026.44986,696.288864 1027.30542,695.137817 C1029.2951,692.359427 1030.72766,689.184123 1032.69744,686.405733 C1033.49331,685.274531 1033.25455,683.905182 1034.07031,682.932745 C1032.9561,681.464168 1033.05558,681.067255 1033.85145,679.737596 C1035.50288,677.018743 1038.04966,674.974642 1039.60161,672.176406 C1040.16265,671.397883 1041.12326,671.011538 1042.0688,671.184123 C1043.71884,671.602971 1045.07505,672.771911 1045.7298,674.339581 C1046.28008,676.041756 1046.46315,677.840778 1046.26701,679.618523 C1045.98833,682.728089 1045.98833,685.856255 1046.26701,688.965821 C1046.38639,692.438809 1046.16753,695.931643 1046.46598,699.404631 C1046.38474,700.46823 1046.73613,701.519678 1047.44092,702.32194 C1048.18636,703.091151 1048.18636,704.311275 1047.44092,705.080485 C1046.76717,706.008835 1046.47528,707.159218 1046.62515,708.29548 C1046.62515,709.009923 1046.74454,709.724366 1046.72464,710.418964 C1046.97349,712.467874 1046.81117,714.545693 1046.24712,716.531422 C1046.01259,717.425938 1045.97862,718.361022 1046.14763,719.270121 C1046.14763,720.480706 1045.80939,721.711136 1045.86908,722.7828 C1045.92877,723.854465 1046.38639,725.084895 1046.42619,726.275634 C1046.46598,727.466373 1046.42619,728.557883 1046.42619,729.689085 C1047.01091,732.388528 1045.48173,735.09819 1042.86467,736 C1040.64176,734.972619 1039.20396,732.76748 1039.16388,730.324146 C1038.73384,727.859065 1038.68017,725.343277 1039.0047,722.862183 C1039.44478,719.208209 1039.57789,715.52394 1039.40264,711.84785 C1039.40694,711.498118 1039.46052,711.150726 1039.56181,710.815877 C1040.2383,708.61301 1039.36285,707.025358 1037.03493,706.846748 C1035.13085,706.476556 1033.1598,706.669706 1031.36436,707.402426 C1030.9445,707.688834 1030.39144,707.688834 1029.97158,707.402426 C1029.38139,707.016847 1028.64202,706.935725 1027.98191,707.184123 C1027.52429,707.997795 1027.40491,709.168688 1025.99224,709.287762 C1025.87286,709.287762 1025.73358,709.426681 1025.65399,709.545755 C1024.22143,711.788313 1021.91341,713.415656 1020.67981,715.737596 C1020.11662,717.077564 1019.40237,718.349252 1018.55086,719.528115 C1016.97901,721.334068 1015.44697,721.850055 1013.53688,719.845645 C1013.38176,719.701437 1013.24176,719.541849 1013.11905,719.36935 C1012.15623,716.445145 1012.92569,713.229357 1015.10872,711.054024 C1016.12045,709.913085 1017.06386,708.71365 1017.93406,707.461963 C1018.65724,706.699982 1019.18313,705.773527 1019.46611,704.762955 C1019.30279,704.400249 1018.9972,704.120433 1018.62096,703.989084 C1018.24471,703.857735 1017.83087,703.886398 1017.47643,704.068357 C1014.67099,705.318633 1011.6069,704.92172 1008.68208,705.437707 C1007.19435,705.447195 1005.71972,705.715842 1004.32469,706.231533 C1003.58006,706.469704 1002.79672,706.564003 1002.01667,706.509372 C999.211228,706.826902 996.346098,706.291069 993.620244,707.541345 C992.451592,707.877807 991.229961,707.992251 990.018935,707.878721 C986.499273,708.166189 983.007025,708.723514 979.573147,709.545755 C977.448332,710.055373 975.285891,710.393839 973.106707,710.557883 C970.93139,710.70218 968.790976,711.17735 966.759648,711.966924 C964.09162,712.659568 961.379385,713.170121 958.641779,713.495039 C957.326064,713.729466 956.038886,714.101988 954.801708,714.606395 C953.619506,715.0644 952.381842,715.36468 951.120812,715.499449 C948.831476,715.909775 946.595637,716.575476 944.455405,717.484013 C943.980868,717.629665 943.495054,717.735872 943.002943,717.801544 C942.485628,717.900772 941.848932,717.980154 941.749448,718.476295 C941.37141,720.063947 939.759774,720.183021 939.023595,721.076075 C938.187932,721.214994 937.869584,720.599779 937.352269,720.401323 C936.841655,720.133149 936.231351,720.133149 935.720737,720.401323 C932.796625,721.897973 930.119369,723.83216 927.781938,726.136714 C927.585783,726.439275 927.270023,726.6445 926.913301,726.701278 C926.556578,726.758055 926.192464,726.661042 925.911645,726.434399 C924.160732,725.342889 922.350129,724.271224 922.051677,721.949283 C921.917297,720.574966 922.045578,719.187696 922.429716,717.86108 C922.713472,717.184058 923.348617,716.718464 924.081145,716.650496 C926.35982,716.078566 928.429411,714.874405 930.050166,713.177508 C930.684528,712.498748 931.567334,712.105011 932.497465,712.085998 C933.617516,712.017618 934.716084,711.748723 935.740633,711.292172 Z M1011,697.061834 C1008.52163,696.048143 1005.94061,695.310373 1003.30294,694.861677 C1000.09446,694.717128 996.902175,694.319484 993.755438,693.672402 C990.683096,692.890178 987.508268,692.59592 984.345733,692.800268 C983.853594,692.800268 983.263027,692.939017 982.889001,692.701162 C981.719851,692.186799 980.432088,692.008425 979.168428,692.18581 C978.685518,692.264307 978.190676,692.216529 977.731381,692.047061 C976.595809,691.467356 975.304581,691.272684 974.050178,691.492066 C972.849358,691.492066 971.648538,691.492066 970.447718,691.492066 C968.979307,691.71101 967.486876,691.71101 966.018464,691.492066 C964.459605,691.076695 962.843445,690.922671 961.23487,691.036178 C958.124549,691.036178 955.014229,691.313675 951.903908,691.293854 C949.774709,691.095086 947.635239,691.54388 945.762009,692.582234 C944.524553,694.933696 944.043041,697.614119 944.384019,700.253053 C944.481942,701.107442 944.394631,701.973052 944.128107,702.790171 C943.439112,704.474977 943.71471,706.397637 943.025715,708.102263 C942.927287,708.359939 943.124142,708.637436 943.39974,708.835649 C943.922633,709.054784 944.51075,709.054784 945.033643,708.835649 C946.254173,708.221526 947.606946,707.921865 948.970758,707.963514 C949.255722,707.976706 949.537729,707.900524 949.777866,707.745481 C950.60466,707.031916 951.608625,707.170665 952.592903,707.012095 C954.127782,707.049555 955.658086,706.828476 957.120585,706.357994 C958.098197,705.812577 959.19233,705.513358 960.309648,705.48586 C960.733466,705.535415 961.161802,705.444984 961.530154,705.228184 C962.475061,704.356049 963.656196,704.633546 964.738902,704.435334 C966.948975,704.167839 969.143635,703.784104 971.313884,703.285702 C973.210466,702.558052 975.197824,702.097809 977.219556,701.918037 C979.599884,702.040511 981.984562,701.786354 984.286677,701.16483 C987.104941,700.401583 989.972969,699.838596 992.869587,699.480025 C997.12028,698.797594 1001.42003,698.472724 1005.72427,698.508784 C1007.55488,698.349449 1009.34201,697.859302 1011,697.061834 Z M1032,698.167137 C1032.75209,698.461677 1033.28298,699.345297 1034.21203,698.854397 C1035.31513,698.293688 1036.6703,698.293688 1037.7734,698.854397 C1039.58727,697.12643 1039.36607,693.788311 1037.26464,691 C1036.84435,691.68726 1037.08767,692.590515 1036.29134,693.101051 C1034.9926,693.950267 1034.18296,695.265512 1034.07931,696.694438 C1033.37146,697.32279 1032.42029,697.185338 1032.06636,698.167137 L1032,698.167137 Z M1089.30879,685.913379 C1089.66267,685.913379 1090.09519,685.913379 1090.29179,685.624129 C1091.62867,683.599385 1093.6733,683.98505 1095.59997,684.120033 C1096.24473,684.28332 1096.92121,684.28332 1097.56597,684.120033 C1097.97247,683.975679 1098.4177,683.975679 1098.8242,684.120033 C1101.55694,685.161331 1104.38797,684.467132 1107.17968,684.602115 C1108.69349,684.602115 1110.28595,684.177883 1111.72113,685.103481 C1111.91999,685.197026 1112.15138,685.197026 1112.35024,685.103481 C1114.19828,683.850067 1116.10529,685.103481 1117.99265,685.007064 C1119.88,684.910648 1121.92464,685.007064 1123.89063,684.814231 C1126.8481,684.568254 1129.825,684.671841 1132.75726,685.122764 C1135.56864,685.624129 1138.39967,685.122764 1141.09308,685.759112 C1143.78649,686.395461 1146.85344,686.106211 1149.60583,686.74256 C1151.47744,686.90219 1153.32434,687.270962 1155.11062,687.841707 C1156.38851,688.439489 1158.02029,687.841707 1159.49479,688.169523 C1160.59451,688.343505 1161.68393,688.575237 1162.75834,688.863721 C1164.19969,689.365744 1165.68791,689.727441 1167.20148,689.943585 C1170.17013,690.271401 1172.74559,694.629423 1171.80191,697.425499 C1171.46237,698.394497 1170.63753,699.123361 1169.61966,699.353828 C1166.4196,700.117972 1163.16714,700.652887 1159.88798,700.95434 C1158.09865,700.930827 1156.31588,701.171343 1154.59946,701.667822 C1153.02666,702.323453 1150.86407,701.552122 1149.17332,702.053487 C1144.37629,703.48045 1139.34334,702.497003 1134.56598,703.750416 C1131.26311,704.618164 1127.80296,704.637447 1124.55907,705.775161 C1123.82693,706.023938 1123.05198,706.128779 1122.27851,706.083694 C1120.92928,705.971589 1119.59063,706.395363 1118.56279,707.259974 C1118.07751,707.662861 1117.4681,707.893805 1116.83271,707.915606 C1115.02324,708.084907 1113.24107,708.466884 1111.52453,709.053319 C1109.97139,709.554685 1108.33962,709.959634 1106.74716,710.383866 C1104.50593,710.943081 1102.34333,711.637279 1100.16108,712.408611 C1098.88766,712.808134 1097.89555,713.795662 1097.50699,715.050421 C1097.26236,716.107799 1096.34765,716.887959 1095.24609,716.978749 C1094.83324,716.978749 1094.24344,717.094449 1094.04684,716.785916 C1093.14248,715.436086 1091.68764,715.513219 1090.35077,715.204687 C1088.64994,714.308329 1087.72968,712.440817 1088.07022,710.576699 C1088.73865,709.207586 1088.48307,707.35639 1090.29179,706.527209 C1090.92091,706.257243 1090.72431,705.389495 1090.66533,704.791714 C1090.37043,701.513555 1091.55003,698.408947 1091.76628,695.150072 C1091.76628,694.66799 1092.35608,694.359457 1092.25778,693.607409 C1091.76628,692.604678 1090.48839,692.02618 1089.89859,690.753483 C1089.18573,689.597238 1088.95344,688.216405 1089.24981,686.896826 C1089.29781,686.551323 1089.29781,686.201032 1089.24981,685.855529 L1089.30879,685.913379 Z M1097,701.760252 C1097.88716,703.287726 1099.07005,703.099149 1100.27265,702.778568 C1102.69757,702.137406 1105.08305,701.420813 1107.50797,700.892797 C1108.73029,700.609931 1109.93289,700.383639 1111.1552,700.025342 C1112.38646,699.547137 1113.65981,699.174797 1114.96015,698.912738 C1116.75419,698.667587 1118.50881,698.177287 1120.28314,697.781275 C1122.70805,697.253259 1125.1724,696.894963 1127.59732,696.216085 C1129.4505,695.68807 1131.54027,695.612639 1133.37374,695.141196 C1134.77349,694.7829 1136.19295,693.689152 1137.7307,694.85833 C1137.86871,694.971477 1138.30243,694.85833 1138.49958,694.688611 C1139.28167,694.203417 1140.21446,693.990346 1141.14136,694.085164 C1142.17977,694.141118 1143.20161,693.817559 1144,693.179994 C1141.9205,692.466765 1139.72259,692.121698 1137.51384,692.161678 C1135.61252,692.193034 1133.71078,692.13009 1131.81628,691.973101 C1131.46173,691.967405 1131.11241,691.890298 1130.79111,691.746809 C1128.44505,690.690777 1125.92156,691.746809 1123.55579,691.086789 C1121.89975,692.06739 1120.02685,690.238192 1118.39052,691.426227 C1118.39052,691.426227 1118.25252,691.426227 1118.19337,691.426227 C1116.62944,691.046962 1115.0104,690.9195 1113.40268,691.049073 C1112.81124,691.049073 1112.14094,691.539374 1111.58893,691.40737 C1108.93343,691.093348 1106.2511,691.042792 1103.58473,691.256508 C1101.8913,691.248 1100.2301,691.699195 1098.79404,692.55769 C1098.67576,694.7829 1098.47861,696.932678 1098.45889,699.101315 C1098.58677,700.189593 1098.00897,701.242675 1097,701.760252 Z M1084.99743,683.300903 C1084.15812,683.561638 1084.02149,684.283674 1083.94341,685.00571 C1083.47577,687.716406 1082.64825,690.34832 1081.48403,692.827767 C1080.95754,694.207156 1080.52066,695.620902 1080.17626,697.0597 C1079.82523,698.573534 1079.32152,700.045624 1078.6733,701.452085 C1078.56729,701.714188 1078.50145,701.991584 1078.47811,702.274404 C1077.98494,705.27787 1077.19354,708.221502 1076.11632,711.059175 C1075.72594,712.182342 1075.76498,713.465962 1075.4722,714.629242 C1075.11126,715.931863 1074.98557,717.291398 1075.10134,718.640553 C1075.27263,721.209649 1073.54401,723.503237 1071.08044,723.975597 C1070.73586,724.042481 1070.37945,723.970671 1070.08497,723.775031 C1068.33245,723.008667 1067.14785,721.295236 1067.0205,719.342532 C1066.70886,716.448319 1065.90968,713.631857 1064.65871,711.019062 C1063.79988,708.772728 1063.17527,706.446168 1062.51163,704.139664 C1062.13726,702.697366 1061.50878,701.337797 1060.65733,700.128353 C1060.05225,700.449258 1059.60331,700.790219 1059.56427,701.391916 C1059.16246,703.828666 1058.37101,706.180303 1057.222,708.35154 C1056.96275,708.853446 1056.78475,709.395377 1056.69499,709.956065 C1056.3697,711.788881 1055.63471,713.519059 1054.54791,715.010317 C1054.22336,715.563997 1053.65903,715.923028 1053.03201,715.97473 C1052.405,716.026431 1051.79216,715.764467 1051.38584,715.271052 C1050.53666,714.501538 1050.03506,713.405372 1050,712.242512 C1050,710.878666 1050,709.494764 1050,708.231201 C1050,706.967638 1051.1321,705.704075 1051.4444,704.21989 C1052.22516,700.850389 1054.19657,697.821849 1054.25513,694.191613 C1054.37188,693.410664 1054.63718,692.660992 1055.03588,691.985391 C1055.84215,689.31405 1056.15981,686.512342 1055.97279,683.722091 C1055.97279,681.435644 1056.9097,679.309649 1056.8121,676.983088 C1056.8121,675.639299 1058.60785,674.796924 1059.83754,675.378564 C1060.72272,675.781902 1061.56082,676.286503 1062.33596,676.882806 C1063.41419,677.707694 1064.04498,679.011464 1064.03411,680.392703 C1064.1317,682.398358 1064.30737,684.404014 1064.56112,686.409669 C1064.77583,688.054307 1065.45899,689.518435 1065.77129,691.143016 C1066.57157,695.154327 1068.50394,698.884846 1069.32374,702.93627 C1069.49149,703.665714 1070.04108,704.238172 1070.74862,704.420456 C1071.25611,702.134008 1072.13446,700.008013 1072.83714,697.821849 C1073.7079,694.378557 1074.8772,691.022375 1076.33103,687.793571 C1076.95042,686.462146 1077.39668,685.052783 1077.65832,683.601751 C1078.57402,680.336767 1079.65555,677.123315 1080.89846,673.974605 C1080.89846,673.77404 1081.21076,673.593531 1081.19124,673.413022 C1081.19124,670.143803 1083.14313,667.496338 1083.7287,664.407628 C1084.51469,661.389046 1085.54632,658.443726 1086.81269,655.602801 C1087.2158,653.87852 1087.8741,652.228035 1088.76458,650.709001 C1089.40871,649.866626 1088.90122,648.282158 1089.58438,647.219161 C1090.28654,646.067239 1090.85639,644.83557 1091.28253,643.548811 C1092.78548,639.5375 1094.347,635.646529 1096.00611,631.755557 C1096.84542,629.749901 1097.958,627.744246 1098.73876,625.73859 C1099.51951,623.732935 1101.08103,622.529542 1101.21766,620.403547 C1101.21766,619.501002 1102.15457,619.240267 1102.93532,619.079814 C1105.27187,618.650178 1107.57534,619.989468 1108.42014,622.268806 C1109.33088,624.212167 1109.1596,626.507778 1107.97121,628.285773 C1107.66361,628.774936 1107.50712,629.348227 1107.52227,629.93041 C1107.39626,631.492627 1106.98575,633.016614 1106.3121,634.423079 C1105.91426,635.702595 1104.99558,636.741711 1103.79416,637.27111 C1101.65648,638.041119 1100.10889,639.963271 1099.77326,642.265192 C1099.77326,642.746549 1099.34384,642.947115 1099.03154,643.247963 C1098.43692,643.769165 1098.01978,644.471836 1097.84088,645.253618 C1097.02572,648.03314 1095.85753,650.690121 1094.36652,653.155901 C1093.6381,654.677561 1093.12541,656.298524 1092.84404,657.969474 C1092.5553,660.080501 1091.89382,662.119603 1090.89215,663.986441 C1090.30899,664.802612 1089.98213,665.782216 1089.95524,666.794358 C1089.83618,668.297562 1089.38203,669.752442 1088.62795,671.046348 C1087.39826,673.794096 1086.87125,676.74241 1085.73915,679.490158 C1085.13472,680.730726 1084.87791,682.119562 1084.99743,683.501469 L1084.99743,683.300903 Z M371.878068,694.587393 L371.857697,694.752853 C371.925404,695.554274 371.708647,696.353863 371.246565,697.007242 C370.981741,697.214066 370.859515,697.503621 371.246565,698 C372.509572,697.627716 373.792949,697.131337 375.055956,696.65564 L377.378259,695.807659 C378.529362,695.346004 379.747635,695.080456 380.983939,695.021725 L381.615442,695.021725 C382.308059,695.06309 382.939562,695.104455 383.265499,694.649441 C383.874634,693.847502 384.868505,693.450233 385.852626,693.615318 L386.137821,693.615318 C386.789695,693.615318 387.25823,693.594635 387.400828,693.077574 C387.787878,691.753896 388.745319,691.753896 389.600904,691.753896 L390.130552,691.753896 C390.454865,691.818733 390.79129,691.751905 391.067621,691.567754 C392.291247,690.633731 393.671693,689.932957 395.141836,689.499507 C395.971069,689.192384 396.780685,688.833195 397.565994,688.424019 C398.916924,687.614281 400.42543,687.11317 401.986518,686.955564 C402.434681,686.934882 402.760618,686.872834 402.903216,686.562597 C403.430053,685.662121 404.359251,685.082161 405.388487,685.011413 L405.836651,684.908 L406.305186,684.908 C406.622118,684.883795 406.929076,684.784633 407.201513,684.618446 C408.994685,683.325341 410.973571,682.320774 413.068382,681.640171 C413.944339,681.267887 415.024006,680.87492 415.981446,680.419906 C416.430145,680.217728 416.791843,679.857845 417,679.406465 C416.805469,679.301069 416.588968,679.244344 416.368497,679.241005 L416.144415,679.241005 C415.431427,679.137593 414.677697,679.03418 413.96471,679.03418 C412.790089,679.020453 411.621048,678.867751 410.481256,678.579166 C408.653909,678.091884 406.767936,677.869071 404.87921,677.917327 L404.288449,677.917327 C403.810283,677.967183 403.327397,677.896129 402.882845,677.710503 C401.652174,677.119732 400.283208,676.890472 398.930856,677.048664 L395.97705,677.048664 C394.775929,677.11052 393.572491,677.11052 392.37137,677.048664 C391.687214,677.018958 391.0022,677.081552 390.334263,677.234806 C389.238092,677.561476 388.06794,677.525255 386.993406,677.131394 C386.886513,677.103372 386.774362,677.103372 386.667469,677.131394 C384.526689,678.103492 382.240669,678.704706 379.904272,678.910086 L379.130171,679.03418 C377.945222,679.13148 376.937395,679.950066 376.583787,681.102427 C376.413611,681.619028 376.20944,682.123438 375.972655,682.612247 C375.549413,683.411279 375.266768,684.279174 375.13744,685.176872 C374.990099,686.300628 374.608113,687.379487 374.017031,688.341289 C373.368549,689.362985 372.9962,690.539903 372.937364,691.753896 C372.921504,691.917081 372.840529,692.066558 372.713282,692.167545 C371.878068,692.767337 371.878068,693.615318 371.878068,694.587393 Z M632.813785,669.780689 C633.233636,670.158865 632.853771,670.77589 632.553878,671.154067 L632.453913,671.273491 C632.393434,671.363585 632.352572,671.465287 632.333956,671.572052 C632.333956,671.71138 632.333956,671.830804 632.333956,671.970133 C632.233992,672.686678 632.114034,673.542552 631.354305,673.841112 C631.274333,673.861016 623.217202,674.338713 621.917664,674.577562 C619.518519,674.975643 615.859821,675.194587 613.200768,675.333915 C612.061173,675.493148 611.161494,675.493148 610.661672,675.493148 C607.122931,675.85142 603.444241,676.68739 603.124355,676.68739 C601.60695,677.197001 600.004162,677.406601 598.406035,677.304415 L598.206106,677.304415 C597.28835,677.341992 596.38314,677.530299 595.52706,677.861728 C594.756197,678.131285 593.958624,678.318116 593.147907,678.419041 C592.368184,678.478753 592.028305,679.334627 592.028305,680.110884 L592.028305,681.643495 C592.028305,682.340137 592.028305,683.036778 592.028305,683.733419 C592.05848,685.539068 591.72539,687.332471 591.048654,689.007989 C590.883793,689.542285 590.822725,690.102966 590.868718,690.660025 C590.884643,691.159685 590.85116,691.659693 590.768754,692.152827 C590.628804,692.371772 590.628804,692.590716 590.628804,692.789757 C590.540217,693.489452 590.316158,694.165401 589.969038,694.78016 C589.67866,695.313442 589.514539,695.905738 589.489209,696.511812 C589.259004,698.711975 588.699685,700.86551 587.8298,702.901008 C587.684135,703.344374 587.609909,703.807907 587.609878,704.274387 L587.609878,704.732179 C587.489921,705.886614 587.250006,707.021144 587.030085,708.115866 C586.570031,709.876622 586.348149,711.690644 586.37032,713.50986 C586.297108,715.040945 585.425067,716.422461 584.071138,717.152299 L583.751252,717.411052 C582.662112,718.022113 581.285787,717.72238 580.552391,716.71441 L580.332469,716.395946 C580.243815,716.221191 580.113365,716.070815 579.952604,715.958057 L579.672704,715.778921 C578.970508,715.478652 578.461976,714.853256 578.313188,714.106981 C578.208912,713.065811 578.381274,712.01564 578.81301,711.061664 C578.878429,710.918361 578.951851,710.778814 579.032932,710.643679 C579.209885,710.406158 579.314036,710.122742 579.332825,709.827613 C579.313953,708.551778 579.503006,707.281337 579.892626,706.06575 C580.188386,705.107525 580.376141,704.119515 580.452426,703.119952 C580.505305,700.372255 581.117431,697.663783 582.251786,695.158337 C582.425118,694.680751 582.493301,694.171649 582.451715,693.665534 C582.401954,693.268995 582.401954,692.867831 582.451715,692.471292 C582.591665,691.655226 582.771601,690.859065 582.931544,690.062903 C583.444173,688.056013 583.745689,686.001473 583.831224,683.93246 C583.831224,683.355243 583.831224,682.89745 583.831224,682.519273 C583.94916,681.333293 583.770585,680.136685 583.311409,679.036066 C582.459863,679.199691 581.598222,679.306086 580.732327,679.354531 C579.514809,679.411996 578.307647,679.605619 577.133608,679.931748 L576.293907,680.250213 C575.074675,680.992362 573.550289,681.030302 572.29533,680.349733 C572.12936,680.278914 571.941486,680.278914 571.775515,680.349733 C570.873161,681.027681 569.734322,681.314713 568.61664,681.145894 L567.71696,681.145894 C566.208683,681.310113 564.740624,681.73443 563.378505,682.399849 L562.698747,682.658601 C561.72218,683.289889 560.51772,683.466035 559.400048,683.141018 C558.282376,682.816001 557.362525,682.022109 556.880818,680.966758 C556.720875,680.72791 556.580925,680.469157 556.440975,680.230309 C556.146091,679.567725 555.684766,678.991918 555.101452,678.558369 C554.854567,678.307811 554.711765,677.973719 554.701594,677.62288 C553.768004,678.640755 553.150053,679.905728 552.922227,681.265319 C552.779468,681.937416 552.515273,682.57811 552.142505,683.156202 L552.142505,683.29553 C551.022904,685.305838 549.943288,687.535091 548.643751,690.500792 C548.443822,690.958585 548.263886,691.456186 548.103943,691.933883 C547.778013,692.921315 547.342122,693.869338 546.804405,694.760256 C546.44503,695.369565 546.22012,696.048083 546.14464,696.75066 C546.044524,697.437578 545.849409,698.107398 545.564847,698.741064 C545.125003,699.616842 544.68516,700.532427 544.285302,701.408205 C543.363001,703.475531 542.287064,705.471474 541.066448,707.379417 C540.613418,707.960858 540.311283,708.644478 540.186761,709.36982 C540.201259,709.860981 540.053794,710.343355 539.766911,710.743199 C538.745297,711.878441 538.017784,713.245006 537.647665,714.724007 C537.321734,715.819289 536.858234,716.869232 536.268156,717.848941 C535.867562,718.531397 535.867562,719.375832 536.268156,720.058289 C536.487194,720.455983 536.661519,720.876509 536.787971,721.312243 C536.894649,721.760873 537.069969,722.19051 537.307786,722.586102 C538.099741,723.447092 538.150473,724.751865 537.427744,725.671228 C536.535329,726.932661 535.162237,727.774439 533.629096,728 L533.489146,728 C532.08733,727.816902 530.898349,726.885218 530.390249,725.571707 C529.490569,723.700728 528.630875,721.710324 527.771181,719.71992 L527.111416,718.207213 C526.986138,717.982255 526.923986,717.727875 526.93148,717.470764 C527.078367,716.008315 526.921852,714.531416 526.471644,713.131684 C526.204498,712.173381 526.017263,711.194761 525.911843,710.20579 C525.918853,709.028338 525.637498,707.866928 525.092135,706.822103 C524.924535,706.543129 524.822046,706.230226 524.792242,705.906518 C524.652292,704.513235 524.392384,703.100048 524.112484,701.72667 C523.6242,699.63835 523.376027,697.501526 523.372747,695.357378 C523.341776,694.651844 523.128288,693.966234 522.752968,693.366974 C522.633011,693.148029 522.533046,692.929085 522.433082,692.71014 C521.971247,691.65194 521.707021,690.518796 521.653359,689.366262 C520.493772,689.684727 520.033936,690.679929 519.534114,691.67513 C519.344893,692.07909 519.131243,692.471255 518.894342,692.849469 C517.734754,694.501504 516.73511,696.272963 515.735466,697.984711 C515.295623,698.741064 514.855779,699.517321 514.395943,700.253771 C514.357862,700.358574 514.287995,700.448998 514.196014,700.512523 C514.056064,700.572236 514.056064,700.69166 514.056064,700.69166 C513.700029,702.295525 513.092824,703.83366 512.256705,705.249684 C511.706888,706.234485 511.23238,707.259125 510.83721,708.314906 C510.706047,708.681811 510.706047,709.082532 510.83721,709.449436 C510.888713,709.646011 510.928765,709.845384 510.957167,710.046558 C510.957167,710.165982 510.957167,710.30531 510.957167,710.424734 C511.11711,711.738401 511.297046,713.071971 509.51768,713.728805 C509.497687,713.728805 509.397722,713.828325 509.337744,713.927845 C509.277765,714.027365 509.137815,714.126885 509.137815,714.24631 C508.677979,715.002663 508.038206,716.017769 506.958591,715.440552 L506.418783,715.181799 C505.539096,714.763815 504.459481,714.24631 504.239559,712.972451 C504.12781,712.437481 503.939276,711.921315 503.679758,711.43984 C503.317115,710.794573 503.086105,710.084331 503,709.349916 C502.99975,707.756719 503.38371,706.186747 504.119602,704.771988 L504.279545,704.373907 C505.299182,702.164559 506.278833,699.975114 507.29847,697.865286 L508.797936,694.760256 C509.003459,694.309774 509.386979,693.963979 509.857559,693.804863 C510.357381,693.625726 510.357381,693.34707 510.357381,693.247549 C510.584783,691.960738 511.166117,690.761897 512.036783,689.784247 L512.456633,689.226934 C513.560655,687.585131 514.498253,685.838281 515.255637,684.012076 C515.55553,683.395051 515.875416,682.698409 516.215295,682.021672 C516.908029,680.800268 517.317872,679.440196 517.414868,678.040864 C517.434861,676.846622 518.39452,676.169885 519.254213,675.572764 L519.933971,675.075163 C521.067654,674.166934 522.62767,673.996095 523.932548,674.637274 C525.3024,675.177701 526.2627,676.424366 526.431658,677.881632 C526.409962,679.39511 526.879783,680.8751 527.771181,682.101288 C528.194717,682.679768 528.425456,683.37587 528.430946,684.091692 C528.561536,685.721265 528.904285,687.327034 529.450583,688.868661 C529.550548,689.187126 529.730484,689.485686 529.730484,689.804151 C530.080147,691.042215 530.268293,692.319936 530.290285,693.605822 C530.317887,696.015482 530.545246,698.418762 530.970043,700.79118 C531.070007,701.268877 531.209957,701.72667 531.209957,702.204367 C531.31284,703.651118 531.750791,705.054508 532.489502,706.304598 L532.609459,706.125462 C532.829381,705.806998 533.049302,705.508437 533.229238,705.189972 C533.649089,704.473427 534.048946,703.717074 534.428811,703.000528 C535.219182,701.489545 536.12135,700.039184 537.12785,698.661448 C537.833568,697.577079 538.378959,696.397297 538.747274,695.158337 C538.987188,694.561216 539.20711,693.924287 539.467018,693.327166 C539.799517,692.551572 540.173246,691.794148 540.586619,691.058105 C540.766555,690.719737 540.986477,690.401272 541.186405,690.082807 C541.929038,689.230675 542.309107,688.124092 542.246028,686.997682 L542.246028,686.898161 C543.12286,685.569868 543.84714,684.147777 544.405259,682.658601 C544.785124,681.743015 545.184982,680.787622 545.664811,679.89194 C545.732452,679.747871 545.819929,679.613889 545.924719,679.493859 C546.072681,679.314938 546.175506,679.103376 546.224612,678.876834 C546.224612,677.423839 547.144284,676.88643 548.2239,676.548062 C548.064252,675.181684 548.484551,673.810961 549.383487,672.766294 L549.54343,672.567254 C549.795521,672.291584 549.986285,671.966014 550.103231,671.61186 C550.630336,669.430583 551.559034,667.365483 552.842256,665.521224 C553.342078,664.725063 553.861893,663.809477 554.281743,663.03322 C554.701594,662.256962 554.981494,661.699649 555.461323,660.644735 C555.941153,659.589821 556.460968,658.515003 557.020768,657.479993 C557.68608,656.32065 558.413538,655.197767 559.199992,654.116211 L559.699815,653.399665 C560.398103,652.546935 560.872193,651.534566 561.079323,650.453868 C561.180442,649.341362 561.619822,648.285981 562.338875,647.428454 C562.730285,646.931056 563.022132,646.363469 563.198569,645.756515 C563.318526,645.457954 563.458476,645.119585 563.598427,644.821025 C564.551278,642.973333 565.289128,641.023381 565.797644,639.009046 C565.955618,638.345116 566.382616,637.775912 566.977224,637.436627 C567.78054,636.987075 568.732132,636.87942 569.616284,637.138066 C570.99961,637.628337 572.275573,638.378351 573.374946,639.347414 L573.874768,639.745495 C574.258107,640.087302 574.457989,640.588471 574.414576,641.09897 C574.742099,643.237881 573.749278,645.363743 571.895473,646.492964 C571.123939,646.889549 570.58906,647.629135 570.455985,648.483368 C570.368894,649.243415 570.014838,649.94838 569.456341,650.473772 C569.235238,650.716335 569.065276,651.000603 568.956519,651.309741 C568.234637,652.845603 567.371247,654.311508 566.377437,655.68863 C565.65706,656.708796 564.989753,657.765099 564.378149,658.853372 C563.858334,659.808765 563.298533,660.744255 562.758726,661.659841 C561.763146,663.227605 560.894061,664.871528 560.159651,666.576138 C559.821033,667.341446 559.41281,668.074313 558.940085,668.765583 C558.17041,669.764549 557.649676,670.930996 557.420626,672.169173 C557.345469,672.523552 557.138317,672.836455 556.840832,673.044951 C556.520946,673.303703 556.361003,673.502744 556.361003,673.900824 C557.905831,673.361759 559.556211,673.191318 561.179288,673.403224 C561.839053,673.403224 562.518811,673.403224 563.178576,673.403224 C564.886838,673.332385 566.589291,673.159573 568.276761,672.885719 C569.736241,672.686678 571.235708,672.388118 572.735174,672.388118 L574.734462,672.268693 L577.693409,672.109461 L577.973309,672.109461 C578.552469,672.15798 579.132436,672.025807 579.632718,671.731284 C579.894329,671.519444 580.215842,671.394194 580.552391,671.373012 L580.692341,671.373012 C581.824471,671.332252 582.94967,671.178892 584.051145,670.915219 C584.810875,670.755986 585.590597,670.596754 586.37032,670.497234 C587.609878,670.37781 588.949401,670.27829 590.108989,670.218577 C591.268576,670.158865 592.488142,670.079249 593.647729,669.959825 C594.48743,669.860305 595.347124,669.860305 596.166832,669.860305 C598.332,670.027465 600.499268,669.564127 602.404611,668.526734 C606.420976,667.645764 610.509928,667.132752 614.620262,666.994123 C615.856415,667.056046 617.095121,666.942109 618.298953,666.655755 C619.27148,666.439328 620.261997,666.312732 621.257899,666.277578 C622.003257,666.290546 622.741756,666.133972 623.417131,665.819785 C625.935185,664.602036 628.924344,664.878148 631.174369,666.53633 C631.74124,667.002209 632.112172,667.662658 632.213999,668.387406 C632.288424,668.89597 632.495199,669.3763 632.813785,669.780689 Z M518.986126,641.464863 L518.946469,641.263663 C519.14541,642.419823 518.783026,643.602409 517.973057,644.440246 C517.163089,645.278084 516.004824,645.668468 514.861804,645.488871 C512.558926,645.085213 510.204888,645.085213 507.90201,645.488871 C506.593221,645.720487 505.261346,645.78806 503.936315,645.690071 C503.36129,645.690071 502.647465,645.690071 501.953468,645.690071 C500.843074,645.690071 499.693022,645.690071 498.602456,645.690071 C496.327694,645.553055 494.044944,645.688117 491.80129,646.092472 C491.199485,646.273025 490.559048,646.273025 489.957242,646.092472 C488.992973,645.790827 487.967904,645.749221 486.982972,645.971752 C486.03588,646.1828 485.054935,646.1828 484.107843,645.971752 C483.803929,645.959923 483.516816,646.113257 483.354361,646.374153 C481.854825,647.292975 480.054125,647.561251 478.357586,647.118594 L478.238615,647.118594 C478.099268,646.882976 478.04331,646.606169 478.079988,646.333913 C478.079988,645.871152 477.822217,645.508991 477.604104,645.569351 C477.385991,645.629711 477.385991,645.770552 477.385991,646.152832 C477.426293,646.472617 477.316141,646.793029 477.088564,647.017994 C476.766858,647.306587 476.34774,647.457959 475.918684,647.440515 C475.57527,647.460416 475.231017,647.460416 474.887604,647.440515 C474.00554,647.286133 473.099997,647.512201 472.389216,648.064236 C472.160435,648.232271 471.87374,648.297726 471.596077,648.245316 C469.684546,648.124369 467.766059,648.184993 465.865649,648.426397 C464.477656,648.567237 463.010349,648.687957 461.602527,648.687957 L460.630932,648.687957 C459.448413,648.481058 458.231948,648.709378 457.200606,649.331798 C456.742017,649.632586 456.152232,649.632586 455.693642,649.331798 C455.280691,648.960062 454.659116,648.960062 454.246164,649.331798 C453.93672,649.520444 453.57141,649.591728 453.215083,649.532999 C453.004003,649.509188 452.811152,649.400473 452.679715,649.231198 C452.245606,648.687357 451.645801,648.305197 450.974466,648.144716 C450.494926,647.977122 450.03588,647.75435 449.606301,647.480755 C448.65127,648.339643 447.386415,648.755307 446.11649,648.627597 C445.56361,648.616384 445.011319,648.6704 444.470727,648.788557 C444.413024,648.916301 444.413024,649.063214 444.470727,649.190958 C444.628281,649.517341 444.573242,649.908276 444.331928,650.17684 L441.000745,650.579241 L439.017897,648.386157 C438.974111,648.571316 438.974111,648.764359 439.017897,648.949518 C439.110106,649.502774 438.915341,650.065254 438.502357,650.4384 L437.768704,650.4384 C436.981621,650.489097 436.206392,650.658629 435.468601,650.941401 C434.49246,651.297315 433.470531,651.507417 432.434845,651.565123 C431.482677,651.698815 430.546804,651.227988 430.075256,650.37804 C429.031606,650.349296 428.037104,650.827696 427.398413,651.665723 C426.664759,652.772325 423.095634,652.993645 421.945583,652.229084 C421.260536,651.881351 420.699187,651.325812 420.339476,650.639601 C420.034811,650.927366 419.774171,651.259653 419.566166,651.625483 C419.366398,651.987074 419.126931,652.324557 418.852341,652.631485 C417.339919,653.067199 415.712935,652.696123 414.529734,651.645603 C414.240876,651.994153 413.826944,652.211404 413.379683,652.249204 C413.010192,652.240871 412.659741,652.081212 412.408088,651.806563 C412.286546,651.98473 412.180399,652.173217 412.090832,652.369924 C411.978375,652.766928 411.70424,653.096335 411.33735,653.275326 C410.968501,653.366585 410.578797,653.293357 410.266613,653.074125 C410.266613,653.094245 410.266613,653.214966 410.266613,653.214966 L410.266613,653.335686 C409.192786,654.821681 407.155813,655.185389 405.646579,654.160608 C405.012098,654.790226 404.126629,655.087247 403.247333,654.965409 L402.870592,654.965409 L401.403285,654.965409 C400.17601,654.73077 398.906537,654.959773 397.83416,655.60925 C397.474534,655.829969 397.023907,655.829969 396.664281,655.60925 C396.287981,655.397986 395.831044,655.397986 395.454744,655.60925 C394.872097,655.917914 394.252152,656.147893 393.610696,656.293332 C393.111096,656.427642 392.620902,656.595683 392.143389,656.796333 C390.764289,657.663349 388.958563,657.29337 388.019067,655.951291 C387.487163,656.68898 386.657959,657.146582 385.758621,657.198733 C385.052683,657.223806 384.384131,657.526913 383.894745,658.043775 L383.656803,658.325455 L383.478347,658.003535 C383.075103,657.022659 381.989574,656.529191 380.999788,656.876813 C380.424746,656.993441 379.841051,657.060746 379.254882,657.078013 C377.959054,656.908529 376.670959,657.443573 375.864213,658.486416 L375.765071,658.486416 C375.220901,658.598861 374.684425,658.746713 374.158965,658.929057 C372.794441,659.565023 371.233289,659.608622 369.836358,659.049777 L369.578588,658.929057 L369.757044,658.687616 C369.878354,658.518544 370.042916,658.38635 370.232927,658.305335 C370.355783,658.260684 370.465103,658.184421 370.550183,658.084015 C369.805934,658.173673 369.110297,658.50543 368.567335,659.029657 C367.806552,659.876205 366.634605,660.204794 365.553408,659.874698 L365.414608,659.874698 L365.414608,659.733858 C365.367552,659.526016 365.413151,659.307693 365.53925,659.137088 C365.66535,658.966483 365.859135,658.860934 366.068948,658.848576 L366.267233,658.848576 C366.184867,658.614888 365.990323,658.44026 365.751692,658.385816 C365.336376,659.371924 364.562208,660.157476 363.590389,660.5789 L363.273133,660.75998 C362.848254,661.068018 362.308734,661.164193 361.805826,661.021541 C361.414196,660.854686 361.12115,660.512727 361.012688,660.096019 C360.774746,659.391817 360.437662,659.250977 359.842808,659.391817 C359.213858,659.518699 358.708232,659.992892 358.534129,660.61914 C358.492701,660.932952 358.492701,661.250969 358.534129,661.564782 C358.544782,661.658364 358.544782,661.75288 358.534129,661.846462 C358.638117,663.695354 358.225742,665.536488 357.34442,667.158152 C356.888365,667.962954 356.452139,668.828115 356.055569,669.653037 C355.465542,670.859908 354.803358,672.02905 354.072722,673.153924 C353.583044,673.994873 353.196813,674.893564 352.922671,675.829889 C352.744215,676.37313 352.565758,676.936491 352.347645,677.459612 C351.673477,679.069215 350.781196,680.759298 350.067371,682.167701 C349.353546,683.576104 348.600064,685.044866 347.965553,686.493509 L347.687954,687.17759 C346.498246,689.893796 345.288709,692.710601 344.277457,695.547526 C343.861059,696.674248 343.345519,697.760731 342.829979,698.827093 C341.899865,700.560345 341.231467,702.425468 340.847131,704.360103 C340.72307,704.856598 340.50041,705.32216 340.192792,705.728266 L339.915193,706.130666 C339.838854,706.258121 339.75266,706.379222 339.657423,706.492827 C339.483332,706.670795 339.359994,706.893286 339.30051,707.136668 C338.938606,709.514873 338.272015,711.834902 337.317663,714.037842 L336.960751,714.943243 C336.762103,715.593627 336.688064,716.2766 336.742638,716.955247 L336.742638,717.599088 C336.838596,718.975182 336.032146,720.251743 334.75979,720.737814 C334.287678,720.904287 333.792245,720.992602 333.292483,720.999375 C332.108911,721.020169 330.974121,720.52144 330.179413,719.631212 C328.608312,718.096042 328.272744,715.671001 329.366446,713.756161 C330.245154,712.246224 330.805552,710.567711 331.012209,708.826752 C331.096549,708.052989 331.384169,707.316419 331.845005,706.694028 C332.070372,706.37259 332.263033,706.028791 332.420031,705.667906 C332.8166,704.702144 333.153684,703.676022 333.490768,702.69014 C333.945149,701.178528 334.515302,699.705277 335.196017,698.283852 C335.646763,697.338043 336.018207,696.355396 336.306411,695.346326 C336.688802,693.903888 337.319831,692.54153 338.170288,691.322318 C338.38108,690.974507 338.51,690.582061 338.547029,690.175476 L338.665999,689.551755 C338.677222,689.417863 338.677222,689.283246 338.665999,689.149354 C338.680026,688.819082 338.782886,688.499008 338.963426,688.223832 C341.279846,684.933266 343.073003,681.294217 344.277457,677.439492 C344.588885,676.670007 344.953307,675.923721 345.368023,675.206168 C346.240278,673.91076 346.760108,672.404683 346.874987,670.840119 C346.869766,670.318405 347.08657,669.819757 347.469841,669.471957 C348.3456,668.711679 348.916893,667.652487 349.075947,666.494191 C349.254825,665.759929 349.521165,665.050505 349.869086,664.381587 C350.15018,663.790474 350.15018,663.101536 349.869086,662.510423 C348.409737,661.987916 346.797063,662.15008 345.467165,662.953064 L345.328366,662.953064 L345.209395,662.953064 C345.004475,662.846179 344.850911,662.659689 344.783676,662.436069 C344.716441,662.212448 344.741261,661.970735 344.852483,661.765982 L344.852483,661.665382 C344.910677,661.525617 344.991056,661.396478 345.090424,661.283101 C345.15336,661.224879 345.206889,661.156984 345.249052,661.081901 C344.555056,661.041661 344.336942,661.464181 343.999858,662.228743 C343.864166,662.529517 343.705033,662.818823 343.523975,663.093905 L343.385176,663.295105 L343.167063,663.154265 C342.202451,662.605864 341.069188,662.447749 339.994507,662.711624 C339.574415,662.775906 339.150319,662.809526 338.725485,662.812224 L337.793547,662.812224 C336.548589,662.753883 335.302641,662.90342 334.105451,663.254865 C334.348294,663.395734 334.443327,663.702559 334.323564,663.959066 C333.898479,664.283797 333.36261,664.421547 332.836429,664.341347 L332.082947,664.341347 C331.115724,664.250002 330.149102,664.522058 329.366446,665.105908 C328.786932,665.508283 328.068166,665.646857 327.383599,665.488189 C326.995919,665.427667 326.601398,665.427667 326.213719,665.488189 C325.777492,665.588789 325.480065,665.085788 325.400751,664.985188 C325.321438,664.884588 325.182638,664.683388 325.182638,664.683388 C324.656639,665.587147 323.534347,665.928785 322.604937,665.468069 C322.506713,665.413742 322.398913,665.379559 322.287681,665.367469 C321.950597,665.286989 321.811798,665.468069 321.534199,665.81011 C321.313137,666.193641 320.920022,666.44201 320.48329,666.474071 C320.166226,666.428078 319.869611,666.288089 319.630666,666.07167 C319.19444,665.81011 318.976326,665.689389 318.579757,666.07167 C318.25231,666.37435 317.786257,666.467381 317.37022,666.313111 C315.486515,665.83023 315.070117,665.99119 313.99938,668.003194 L313.860581,668.264754 L313.622639,668.063554 C313.392857,667.78173 313.051171,667.618588 312.690701,667.618588 C312.33023,667.618588 311.988544,667.78173 311.758763,668.063554 L311.540649,668.304994 L310.985452,667.359353 C310.132828,668.888476 309.399174,668.828115 306.821473,667.922714 C306.30417,668.715989 305.497108,669.267856 304.57831,669.456583 C303.659512,669.645309 302.704467,669.455389 301.92384,668.928716 C301.707326,669.63461 301.206528,670.214562 300.54534,670.525098 C299.884151,670.835634 299.124333,670.847746 298.453858,670.558439 C298.199343,670.461692 297.912596,670.524603 297.720204,670.719399 C297.394396,671.173478 296.896363,671.468693 296.346538,671.533655 C295.796713,671.598618 295.245157,671.427412 294.825247,671.06144 C294.507992,670.880359 294.051937,671.06144 293.556225,671.24252 C293.275697,671.366524 292.98334,671.460915 292.683772,671.524201 C291.21385,671.943977 289.641988,671.785917 288.281851,671.08156 C288.063738,671.18216 287.90511,671.36324 287.90511,671.584561 C287.828644,671.866805 287.652104,672.11043 287.409399,672.268642 L287.290428,672.268642 L287.191285,672.268642 C285.651152,671.304586 283.646418,671.63933 282.491938,673.053323 C281.366839,674.164141 279.672083,674.43057 278.268473,673.717285 L277.951217,673.616685 C277.321754,673.323928 276.597834,673.323928 275.96837,673.616685 C275.243368,673.824018 274.464967,673.691146 273.846724,673.254524 C273.529264,673.089478 273.197359,672.954764 272.8553,672.852123 C271.156185,671.849705 270.079328,670.036141 270,668.043434 C270.112124,667.381008 270.493483,666.796907 271.050909,666.433831 C271.829532,665.983493 272.761657,665.895509 273.608782,666.19239 C275.855361,666.989817 278.302168,666.989817 280.548747,666.19239 C281.378398,665.907239 282.250695,665.771066 283.126449,665.78999 C283.874373,665.793545 284.62,665.705726 285.347238,665.528429 C286.678145,665.172043 288.039042,664.943015 289.412074,664.844348 C290.881413,664.740027 292.336427,664.483846 293.75451,664.079786 C295.86709,663.120629 298.14337,662.587609 300.456533,662.510423 C302.409606,662.675617 304.372432,662.343669 306.167133,661.544662 C306.458729,661.406768 306.77741,661.337966 307.099072,661.343461 L307.297356,661.343461 C309.101321,661.284561 310.894891,661.041902 312.651044,660.61914 C314.671148,660.13328 316.7417,659.896834 318.817699,659.914938 C319.665944,659.471527 320.600412,659.224168 321.554028,659.190617 C322.413022,659.153098 323.255856,658.941002 324.032587,658.566896 C324.448799,658.352636 324.916172,658.261971 325.380923,658.305335 C328.000225,658.373533 330.619214,658.157695 333.193341,657.661494 L335.176188,657.359694 C336.725869,657.198434 338.250567,656.847123 339.716908,656.313452 C340.734957,655.975206 341.798434,655.798747 342.869635,655.790331 L343.98003,655.790331 C344.640053,655.740136 345.302854,655.740136 345.962877,655.790331 C347.397532,655.915165 348.839487,655.658592 350.146685,655.045889 C350.488298,654.895926 350.875809,654.895926 351.217422,655.045889 C352.363379,655.558305 353.69346,655.396348 354.687405,654.623368 L355.044317,654.442288 C355.665318,654.157271 356.348231,654.039468 357.027165,654.100247 C359.028875,654.213885 361.03581,654.01024 362.975706,653.496646 C363.728928,653.330122 364.49,653.202531 365.255981,653.114366 C366.509501,653.037556 367.738916,652.730795 368.884591,652.208964 C369.285444,652.036411 369.718384,651.954041 370.153613,651.967523 L370.431212,651.967523 C371.264008,651.967523 372.116632,651.967523 372.949428,651.967523 C374.730855,651.975063 376.509347,651.820187 378.263458,651.504762 C379.512652,651.243202 380.781674,651.062122 382.01104,650.901161 C383.537907,650.726135 385.053871,650.464161 386.55176,650.11648 C388.102129,649.768042 389.683203,649.579298 391.270936,649.553119 C392.024418,649.532999 392.797729,649.412278 393.571039,649.412278 L395.097831,649.291558 C397.092868,649.333779 399.067549,648.87776 400.848088,647.963636 C401.177208,647.80961 401.536654,647.733911 401.898997,647.742315 L409.572616,647.279554 L410.147642,647.279554 C410.837798,647.343613 411.530551,647.188966 412.130489,646.836914 C412.548444,646.655736 413.021213,646.655736 413.439168,646.836914 C414.014194,646.977754 414.371106,647.038114 414.70819,646.595473 L414.70819,646.474753 L414.767676,646.474753 C415.813734,646.566829 416.867221,646.436633 417.860917,646.092472 C418.729757,645.795675 419.640844,645.646126 420.55759,645.649831 C422.206809,645.653532 423.855006,645.566216 425.494879,645.388271 C427.298335,645.182783 429.113995,645.10882 430.927881,645.16695 C431.908556,644.671712 432.985399,644.403696 434.080608,644.382269 C435.08085,644.369805 436.067274,644.143568 436.975565,643.718308 C437.400901,643.510199 437.872921,643.41996 438.343729,643.456747 C440.150392,643.490569 441.95752,643.4234 443.756902,643.255547 C445.303523,643.054346 446.929458,643.054346 448.535564,643.054346 C450.24434,643.116082 451.953166,642.933204 453.611653,642.511105 C454.618007,642.265206 455.649958,642.143605 456.685066,642.148945 L457.874774,642.148945 C458.370486,642.148945 458.866198,642.148945 459.36191,642.148945 C460.597233,642.314507 461.852605,642.082261 462.950863,641.484983 C463.22227,641.353786 463.5272,641.311594 463.823316,641.364263 L463.942287,641.364263 C465.617545,641.375115 467.292165,641.294518 468.95889,641.122823 C470.755232,640.910612 472.5643,640.829923 474.372063,640.881382 L474.530691,640.881382 C475.552798,641.075578 476.609416,640.866904 477.485133,640.297901 C477.924227,639.946251 478.531701,639.906224 479.011926,640.197301 C479.786731,640.811674 480.874307,640.811674 481.649113,640.197301 C482.102266,639.989517 482.603217,639.912921 483.096591,639.975981 L483.651788,639.975981 C484.048358,639.975981 484.444927,639.975981 484.841497,639.975981 C485.962645,640.105784 487.096264,639.888351 488.093366,639.352259 C488.313417,639.237828 488.560915,639.188995 488.807191,639.211419 C490.730553,639.251659 492.634086,639.090699 494.458306,638.949859 C496.632787,638.737745 498.817781,638.657122 501.001702,638.708418 L501.358614,638.708418 C502.966594,638.920371 504.601225,638.69829 506.097619,638.064577 C506.726481,637.809396 507.411975,637.732883 508.080466,637.843256 C508.397027,637.873385 508.715672,637.873385 509.032233,637.843256 L510.380569,637.843256 C511.522568,638.004248 512.68443,637.762777 513.672095,637.159175 C513.978498,637.002562 514.329298,636.959847 514.663519,637.038455 C516.680466,637.789726 518.264192,639.411483 518.986126,641.464863 Z M819.626072,654.72569 C819.308041,655.23219 820.122995,655.596871 819.983857,656.103371 C819.142719,657.163741 818.218737,658.15296 817.220965,659.061332 C816.714305,659.470449 816.357277,660.041286 816.207242,660.682133 C815.432042,663.680614 814.676719,666.699356 813.70275,669.576277 C812.311366,673.729579 812.15235,678.247561 810.164658,682.178003 C810.001386,682.581559 809.939883,683.020372 809.985766,683.454383 C810.178411,685.345759 809.767119,687.250008 808.813028,688.884066 C808.675477,689.216356 808.627444,689.580049 808.673889,689.937586 C808.834007,691.541875 808.362085,693.145264 807.362012,694.394788 C807.078472,694.730378 806.942011,695.169614 806.984351,695.610389 C807.202997,697.94029 806.328413,700.229671 806.706074,702.559572 C806.753725,702.847056 806.719224,703.142445 806.606689,703.410492 C805.652597,705.517533 806.070013,707.948734 805.493582,709.974735 C804.991354,712.51573 804.652723,715.087487 804.479859,717.673539 C804.356775,718.754737 804.403745,719.849029 804.618997,720.91514 C805.096044,723.812321 804.221459,725.230522 801.756721,725.838322 C799.463622,726.464628 797.077222,725.222182 796.230937,722.961401 C795.33109,720.883001 794.59336,718.735544 794.024599,716.538978 C793.468045,713.682317 791.420722,711.372676 791.599615,708.333674 C791.537363,707.756798 791.361592,707.198648 791.082815,706.692614 C790.300888,705.162821 789.827772,703.488779 789.69143,701.769431 C789.587848,699.453779 788.998153,697.187712 787.962138,695.124148 C787.246569,693.705948 787.584477,691.983847 786.948415,690.383306 C786.602941,690.300449 786.239336,690.387387 785.966048,690.61819 C785.692759,690.848993 785.54137,691.196989 785.557031,691.558387 C785.343297,693.016706 784.798825,694.404121 783.966877,695.610389 C782.09164,699.050834 780.496148,702.642119 779.196417,706.348193 C778.830397,707.449831 778.662069,708.609666 778.699494,709.772135 C778.567153,713.119959 778.69343,716.473206 779.077155,719.800839 C779.469378,721.162832 779.050613,722.633045 778.003801,723.569201 C776.115667,724.322855 773.971234,723.914007 772.478018,722.515681 C771.772946,721.718796 771.214134,720.79923 770.828233,719.800839 C769.953649,717.531718 768.105095,715.586758 768.105095,713.054256 C767.891421,710.551248 767.472543,708.070866 766.852849,705.639093 C766.039474,699.543034 765.660819,693.394886 765.719865,687.243005 C765.81869,685.20034 765.631287,683.153746 765.163311,681.165002 C764.686265,678.652761 765.10368,672.513978 768.46288,672.392418 C769.098941,672.716578 769.695249,673.121778 770.351187,673.385159 C772.477899,674.221229 773.795462,676.401462 773.571248,678.713541 C773.550848,678.854599 773.550848,678.997943 773.571248,679.139001 C775.101771,683.535423 773.988664,688.073665 774.346448,692.510607 C774.346448,692.956327 774.346448,693.381788 774.346448,694.030108 C774.763863,693.564128 775.240909,693.280488 775.240909,692.956327 C775.603478,691.409209 776.397324,690.001999 777.526755,688.904326 C777.919158,688.481113 778.21746,687.976665 778.40134,687.425345 C778.997647,683.839323 781.541893,681.185262 782.774262,677.903141 C783.10911,676.57546 783.540983,675.275188 784.066262,674.013219 C784.259506,673.552746 784.59436,673.168775 785.020354,672.919178 C787.707536,672.108131 790.586207,673.313832 791.937522,675.81636 C793.135808,679.364002 793.877445,683.05512 794.143861,686.797285 C794.240357,687.654803 794.540557,688.475402 795.018445,689.187966 C795.742956,691.058063 796.165836,693.035327 796.270691,695.043108 C796.571205,697.168279 797.139057,699.245138 797.960229,701.222411 C799.113091,700.128371 798.775183,698.56835 798.775183,697.312229 C798.914321,694.536608 800.305706,692.004107 800.40509,689.208226 C800.622441,687.80415 801.037511,686.439408 801.637459,685.156224 C801.776598,684.690244 802.154259,684.264784 802.154259,683.758283 C802.374693,680.833084 803.087414,677.968376 804.261213,675.289599 C804.490253,674.675021 804.604848,674.022298 804.599121,673.364899 C804.790676,670.930823 805.319347,668.536646 806.169397,666.253635 C807.004228,663.174114 808.137212,660.175633 808.693766,656.994811 C809.031674,654.96881 809.707489,652.942809 809.906258,650.916809 C810.100482,650.166245 810.61676,649.545167 811.311238,649.226628 C812.005717,648.90809 812.804164,648.926139 813.484104,649.275748 C814.348738,649.742765 815.281725,650.064315 816.246996,650.227968 C817.273371,650.343561 818.129401,651.080007 818.41358,652.091889 C818.486049,652.598128 818.768385,653.048242 819.18878,653.32775 C819.765211,653.65191 820.043487,654.01659 819.626072,654.72569 Z M751.933639,685.435444 L751.933639,685.415166 C752.181478,683.626661 751.729535,681.811708 750.671312,680.345791 C749.379207,677.791968 747.014467,675.942027 744.217156,675.296694 C741.394217,674.901102 738.529567,674.901102 735.706628,675.296694 L730.67768,676.006407 C730.351918,676.716119 730.65732,677.202779 731.369924,677.202779 C733.542171,677.46072 735.585766,678.365299 737.233637,679.798299 C739.138909,680.671962 740.310978,682.620167 740.185853,684.705454 C740.063693,685.800439 739.676851,686.084324 738.597764,685.922104 C738.109122,685.861271 737.763,685.192114 737.192917,685.577386 C736.26676,686.232151 735.009698,686.164932 734.15926,685.415166 C733.955658,685.273224 733.507736,685.151559 733.344855,685.273224 C732.38793,685.962659 731.166323,685.982936 730.168677,686.591261 C727.865411,688.190149 725.760438,690.055156 723.897762,692.147296 C720.324261,695.929513 717.688671,700.491833 716.201639,705.469613 C715.973049,706.392112 715.93839,707.351713 716.099838,708.288185 C716.331125,709.507929 717.213949,710.503885 718.400531,710.883705 C720.790582,711.23274 723.229603,710.791081 725.34333,709.6265 C727.058694,708.573361 728.898289,707.735621 730.820201,707.132368 C732.622729,706.678266 734.181996,705.553473 735.177265,703.989355 C736.256351,705.16545 737.457598,703.198533 738.719925,704.881565 C738.495964,702.691596 739.188208,701.637166 740.755937,701.008563 C741.395617,700.640046 741.863768,700.035376 742.058984,699.325531 C742.453208,698.482828 743.091316,697.776696 743.891394,697.297781 C745.845965,695.858078 748.5335,695.128088 748.940703,692.147296 C748.981423,691.924243 749.327545,691.741746 749.531146,691.518693 C750.919746,689.772962 751.755988,687.655549 751.933639,685.435444 Z M824.635915,694.452638 C824.326303,695.764027 824.389128,697.148492 824.815916,698.41931 C824.995917,698.796144 824.815916,699.391145 824.815916,699.886979 L823.843909,709.426826 C823.726761,710.194942 823.726761,710.979213 823.843909,711.747329 C823.907267,712.858193 823.494127,713.937496 822.727901,714.662833 C822.457899,715 822.043896,714.980167 821.629894,715 C820.729887,715 820.423885,713.948832 819.829881,713.690998 C819.235877,713.433164 818.461871,712.976997 818.461871,711.945662 C818.457322,711.660845 818.361709,711.386931 818.191869,711.172161 C817.182946,709.762085 816.805904,707.925393 817.165862,706.174154 C817.165862,704.785819 817.777866,703.377651 817.039861,702.009149 C816.986713,701.876491 816.986713,701.725306 817.039861,701.592648 C818.623872,699.391145 817.273863,697.149975 817.129862,694.908806 C817.129862,694.769972 816.985861,694.611305 817.039861,694.512138 C817.993868,692.528802 817.039861,690.307466 817.417864,688.165463 C817.706864,685.705753 817.851166,683.228022 817.849867,680.747786 C817.912862,680.329434 817.881963,679.90045 817.759866,679.498284 C816.91386,677.792615 817.759866,676.681947 818.767873,675.531612 C819.116663,674.974414 819.808562,674.832579 820.315884,675.214278 C821.755894,676.64228 823.753908,677.376115 824.599914,679.557784 C824.853109,680.123493 824.964946,680.753316 824.923917,681.382453 C824.635915,684.516124 825.193919,687.649795 824.923917,690.8033 C824.671915,692.032968 824.779916,693.242803 824.635915,694.452638 Z M899.929678,673.203273 C900.163783,673.579486 899.773608,674.054701 899.344415,674.529917 C898.489623,675.669392 897.199804,676.388687 895.793819,676.509982 C892.808976,676.43078 890.077748,677.777224 887.151433,677.777224 C886.878618,677.795844 886.604879,677.795844 886.332064,677.777224 C884.172942,677.613518 882.006412,677.973222 880.011222,678.826658 C877.578672,679.412061 875.095963,679.756883 872.597889,679.856292 C870.786558,679.790163 868.977722,680.044777 867.252485,680.608717 C866.513231,680.833337 865.737508,680.907359 864.969959,680.826524 C863.988854,680.715602 862.998379,680.923594 862.141187,681.420544 C861.703887,681.652925 861.202398,681.729623 860.717047,681.638351 C858.091518,681.752853 855.480643,682.097345 852.913538,682.667985 C851.578405,683.12892 850.15794,683.277829 848.75817,683.103599 C848.242396,682.940577 847.689905,683.208015 847.4901,683.71742 C846.836979,684.815467 845.721132,685.546139 844.46624,685.697485 C842.964065,686.073697 842.456837,686.984527 841.969117,688.429975 C844.615047,688.515109 847.255445,688.133223 849.772626,687.301338 C852.818612,686.319491 855.999666,685.838202 859.195363,685.875691 C860.170801,685.816289 861.165749,685.994495 861.985117,685.24207 C862.160824,685.130236 862.363037,685.068664 862.57038,685.063864 C865.867363,684.747054 869.047292,683.776822 872.324766,683.776822 C873.446597,683.892108 874.576381,683.657244 875.563222,683.103599 C875.748647,683.000446 875.956544,682.945993 876.167994,682.945194 C878.801678,683.182802 881.31831,681.856158 883.737398,681.638351 C886.156485,681.420544 886.624696,681.717554 888.380485,683.915426 C888.985257,684.64805 889.746099,685.004462 889.199854,686.113299 C888.399994,687.697351 887.717187,689.439808 885.76631,690.073429 C885.702586,690.092131 885.634946,690.092131 885.571222,690.073429 C883.69838,688.608181 881.845047,689.994227 880.030731,690.192233 C878.216415,690.39024 876.402099,690.568445 874.587784,690.568445 C873.911005,690.503272 873.230684,690.648276 872.636906,690.984259 C872.441819,691.221867 872.051643,691.32087 871.876064,691.221867 C869.495994,689.915024 867.545117,691.815887 865.399152,692.033694 C862.745959,692.310903 860.112275,692.726717 857.459082,692.726717 C855.264951,692.885391 853.104025,693.358707 851.040696,694.132563 C850.219091,694.309291 849.383175,694.408716 848.543573,694.429573 C846.553679,694.667181 844.836907,695.835419 842.339784,695.835419 C844.856415,698.211497 843.529819,700.349968 842.339784,702.448837 C843.563046,703.046102 844.975182,703.103433 846.241538,702.607242 C848.95336,701.52791 851.818905,700.899425 854.727854,700.745981 C857.074122,700.129943 859.483926,699.797625 861.907082,699.755948 C863.740907,698.468906 865.90638,698.765916 867.97431,698.468906 C869.120542,698.235744 870.243627,697.897754 871.329819,697.459073 C872.452327,697.117427 873.612137,696.917908 874.782871,696.865053 C876.538661,696.746249 878.216415,696.191831 879.89417,695.914622 C882.235222,695.518609 884.439713,694.667181 886.780766,694.330569 C887.060057,694.310926 887.340352,694.310926 887.619643,694.330569 C889.425754,694.058634 891.130853,695.252755 891.521397,697.06306 C891.924862,698.820929 891.228589,700.650473 889.765608,701.676612 C889.550503,701.85447 889.296131,701.976765 889.024275,702.033023 C885.493187,702.211229 882.157187,703.973487 878.528556,703.399268 C877.96617,703.282946 877.38137,703.404516 876.909327,703.735879 C876.675222,703.894285 876.421608,704.112092 876.187503,704.112092 C873.924485,704.013089 871.876064,705.181327 869.613047,705.181327 C866.636074,705.16804 863.688044,705.774554 860.951152,706.963386 C860.044405,707.355438 859.068957,707.557487 858.083363,707.557405 C855.245982,707.711913 852.452259,708.333856 849.811643,709.398866 C849.39754,709.499564 849.031526,709.744887 848.777679,710.091889 C847.929919,711.27289 846.482451,711.845075 845.071012,711.557137 C843.955738,711.52075 842.840611,711.633931 841.754521,711.893748 C839.413468,712.210559 838.789187,711.893748 837.696696,709.913683 L837.4821,709.913683 C837.033398,707.537605 837.716205,704.765513 836.643223,702.587442 L833.872977,702.587442 C834.036433,702.248915 834.116753,701.875271 834.107082,701.498406 C832.058661,701.696412 831.902591,699.854952 831.141749,698.627311 C831.025931,698.445615 830.990544,698.222931 831.044205,698.013491 C831.619453,696.401474 831.619453,694.635743 831.044205,693.023726 C830.813505,691.841711 831.506301,690.675491 832.643924,690.330838 C834.555784,689.717017 834.77038,688.073563 835.199573,686.588514 C835.287656,685.611261 835.531433,684.654996 835.921398,683.757021 C836.222915,683.116336 836.163366,682.360839 835.765328,681.776956 C835.574597,681.478991 835.417537,681.160171 835.297117,680.826524 C834.809398,678.965263 835.238591,678.074234 837.033398,677.183204 C837.345538,677.024799 837.618661,676.826793 837.891784,676.668387 C839.972863,677.545712 842.289035,677.664653 844.446731,677.004998 C844.719854,676.945596 845.071012,676.727789 845.207573,676.727789 C847.4901,678.113835 849.616556,675.737757 851.840556,676.470381 C854.361508,675.669744 857.01305,675.380439 859.644064,675.618953 C860.411954,675.619217 861.170753,675.450324 861.868064,675.123936 C863.086927,674.548223 864.427856,674.289635 865.769819,674.371512 C867.43598,674.472013 869.104336,674.215655 870.66652,673.619087 C871.929241,673.229855 873.257372,673.108534 874.568275,673.262675 C876.487628,673.096657 878.380467,672.697801 880.20631,672.074636 C882.77643,671.499325 885.384551,671.115489 888.009819,670.926198 C889.243659,670.784479 890.444515,670.429547 891.560415,669.876764 C893.094822,669.401968 894.679901,669.116108 896.281538,669.025335 C897.210533,668.888454 898.132863,669.313967 898.642099,670.114371 C899.167073,671.100116 899.598218,672.134433 899.929678,673.203273 Z" transform="translate(-270 -619)"/>
</svg>
