<svg xmlns="http://www.w3.org/2000/svg" width="44" height="44" viewBox="0 0 44 44">
  <path fill="#FFF" fill-rule="evenodd" d="M93.7478875,17.5135125 C93.7561375,17.7073875 93.7616375,17.9012625 93.7616375,18.0978875 C93.7616375,24.0612625 89.2213875,30.9390125 80.9191375,30.9390125 C78.3698875,30.9390125 75.9980125,30.1923875 74.0001375,28.9122625 C74.3535125,28.9535125 74.7123875,28.9741375 75.0767625,28.9741375 C77.1915125,28.9741375 79.1371375,28.2536375 80.6826375,27.0422625 C78.7067625,27.0065125 77.0402625,25.7016375 76.4655125,23.9086375 C76.7418875,23.9608875 77.0237625,23.9883875 77.3152625,23.9883875 C77.7263875,23.9883875 78.1251375,23.9333875 78.5046375,23.8302625 C76.4393875,23.4163875 74.8842625,21.5917625 74.8842625,19.4055125 L74.8842625,19.3477625 C75.4920125,19.6860125 76.1891375,19.8895125 76.9288875,19.9128875 C75.7175125,19.1030125 74.9200125,17.7211375 74.9200125,16.1563875 C74.9200125,15.3286375 75.1427625,14.5531375 75.5318875,13.8862625 C77.7580125,16.6170125 81.0841375,18.4141375 84.8351375,18.6025125 C84.7581375,18.2725125 84.7182625,17.9273875 84.7182625,17.5740125 C84.7182625,15.0811375 86.7395125,13.0598875 89.2310125,13.0598875 C90.5303875,13.0598875 91.7032625,13.6085125 92.5255125,14.4857625 C93.5540125,14.2836375 94.5206375,13.9082625 95.3923875,13.3912625 C95.0555125,14.4445125 94.3391375,15.3286375 93.4082625,15.8882625 C94.3212625,15.7782625 95.1902625,15.5362625 96.0001375,15.1773875 C95.3951375,16.0821375 94.6292625,16.8768875 93.7478875,17.5135125 M85.0001375,0.0001375 C72.8492625,0.0001375 63.0001375,9.8492625 63.0001375,22.0001375 C63.0001375,34.1496375 72.8492625,44.0001375 85.0001375,44.0001375 C97.1510125,44.0001375 107.000138,34.1496375 107.000138,22.0001375 C107.000138,9.8492625 97.1510125,0.0001375 85.0001375,0.0001375" transform="translate(-63)"/>
</svg>
