<svg xmlns="http://www.w3.org/2000/svg" width="44" height="44" viewBox="0 0 44 44">
  <g fill="#FFF" fill-rule="evenodd">
    <path d="M33,22.83105 C33,24.611675 32.78,26.3923 32.78,26.3923 C32.78,26.3923 32.5655,27.90755 31.9055,28.5758 C31.0695,29.451675 30.13175,29.4558 29.701375,29.506675 C26.62275,29.729425 22,29.7363 22,29.7363 C22,29.7363 16.28,29.68405 14.52,29.5163 C14.0305,29.424175 12.9305,29.451675 12.0945,28.5758 C11.4345,27.90755 11.22,26.3923 11.22,26.3923 C11.22,26.3923 11,24.611675 11,22.83105 L11,21.1618 C11,19.381175 11.22,17.601925 11.22,17.601925 C11.22,17.601925 11.4345,16.0853 12.0945,15.41705 C12.9305,14.541175 13.86825,14.53705 14.298625,14.486175 C17.37725,14.263425 21.995875,14.263425 21.995875,14.263425 L22.004125,14.263425 C22.004125,14.263425 26.62275,14.263425 29.701375,14.486175 C30.13175,14.53705 31.0695,14.541175 31.9055,15.41705 C32.5655,16.0853 32.78,17.601925 32.78,17.601925 C32.78,17.601925 33,19.381175 33,21.1618 L33,22.83105 Z M22,0.00055 C9.849125,0.00055 0,9.849675 0,22.00055 C0,34.15005 9.849125,44.00055 22,44.00055 C34.150875,44.00055 44,34.15005 44,22.00055 C44,9.849675 34.150875,0.00055 22,0.00055 L22,0.00055 Z"/>
    <polygon points="19.729 24.854 25.673 21.774 19.727 18.672"/>
  </g>
</svg>
